<?xml version="1.0" encoding="UTF-8" standalone="no"?>
<svg
   id="Ebene_1"
   data-name="Ebene 1"
   viewBox="0 0 735.41931 191.55846"
   version="1.1"
   sodipodi:docname="NFDI_4_Biodiversity___Logo_Positiv.svg"
   inkscape:version="1.2.2 (1:1.2.2+202305151914+b0a8486541)"
   width="735.41931"
   height="191.55846"
   xmlns:inkscape="http://www.inkscape.org/namespaces/inkscape"
   xmlns:sodipodi="http://sodipodi.sourceforge.net/DTD/sodipodi-0.dtd"
   xmlns:xlink="http://www.w3.org/1999/xlink"
   xmlns="http://www.w3.org/2000/svg"
   xmlns:svg="http://www.w3.org/2000/svg">
  <sodipodi:namedview
     id="namedview75"
     pagecolor="#ffffff"
     bordercolor="#666666"
     borderopacity="1.0"
     inkscape:showpageshadow="2"
     inkscape:pageopacity="1"
     inkscape:pagecheckerboard="0"
     inkscape:deskcolor="#d1d1d1"
     showgrid="false"
     inkscape:zoom="2.1440217"
     inkscape:cx="368.00001"
     inkscape:cy="96.081117"
     inkscape:window-width="2560"
     inkscape:window-height="1406"
     inkscape:window-x="0"
     inkscape:window-y="34"
     inkscape:window-maximized="1"
     inkscape:current-layer="Ebene_1" />
  <defs
     id="defs12">
    <style
       id="style2">.cls-1{fill:url(#Unbenannter_Verlauf_27);}.cls-2{fill:url(#Unbenannter_Verlauf_23);}.cls-3{fill:#6edf3b;}.cls-4{fill:#00c5c8;}</style>
    <linearGradient
       id="Unbenannter_Verlauf_27"
       x1="91"
       y1="150.25999"
       x2="91.080002"
       y2="150.25999"
       gradientUnits="userSpaceOnUse">
      <stop
         offset="0"
         stop-color="#fff"
         id="stop4" />
    </linearGradient>
    <linearGradient
       id="Unbenannter_Verlauf_23"
       x1="90.919998"
       y1="150.34"
       x2="91"
       y2="150.34"
       gradientUnits="userSpaceOnUse">
      <stop
         offset="0"
         stop-color="#fff"
         id="stop7" />
      <stop
         offset="1"
         id="stop9" />
    </linearGradient>
    <linearGradient
       inkscape:collect="always"
       xlink:href="#Unbenannter_Verlauf_27"
       id="linearGradient1087"
       gradientUnits="userSpaceOnUse"
       x1="91"
       y1="150.25999"
       x2="91.080002"
       y2="150.25999" />
    <linearGradient
       inkscape:collect="always"
       xlink:href="#Unbenannter_Verlauf_23"
       id="linearGradient1089"
       gradientUnits="userSpaceOnUse"
       x1="90.919998"
       y1="150.34"
       x2="91"
       y2="150.34" />
    <linearGradient
       inkscape:collect="always"
       xlink:href="#Unbenannter_Verlauf_27"
       id="linearGradient1091"
       gradientUnits="userSpaceOnUse"
       x1="91"
       y1="150.25999"
       x2="91.080002"
       y2="150.25999" />
    <linearGradient
       inkscape:collect="always"
       xlink:href="#Unbenannter_Verlauf_23"
       id="linearGradient1093"
       gradientUnits="userSpaceOnUse"
       x1="90.919998"
       y1="150.34"
       x2="91"
       y2="150.34" />
  </defs>
  <rect
     style="fill:#ffffff;fill-opacity:1;stroke:none;stroke-width:0.755906;stroke-linecap:square;stop-color:#000000"
     id="rect320"
     width="735.41931"
     height="191.55846"
     x="0"
     y="0" />
  <path
     class="cls-1"
     d="M 91.033371,149.83196 Z"
     id="path14"
     style="fill:url(#linearGradient1087)" />
  <path
     class="cls-2"
     d="M 91.033371,149.84196 Z"
     id="path16"
     style="fill:url(#linearGradient1089)" />
  <path
     class="cls-3"
     d="m 87.863371,119.18196 c 4.4,1.61 9,-1.12 10.25,-6.11 1.25,-4.99 -1.27,-10.33 -5.67,-11.94 -4.4,-1.610004 -9,1.12 -10.25,6.11 -1.25,4.99 1.28,10.3 5.67,11.94 z"
     id="path18" />
  <path
     class="cls-3"
     d="m 97.483371,123.27196 a 27.8,27.8 0 0 0 -6.34,11.32 83.88,83.88 0 0 0 -26.28,-25 c -15,-9.15 -34.25,-13.440004 -49.14,-12.650004 13.73,0.1 31.11,5.410004 44.41,14.180004 18.51,12.21 29.15,33.84 29.9,37.56 0,0.19 0,0.35 0,0.54 v 0 c 6.39,-8.65 17.219999,-19.94 28.209999,-25.41 13.76,-6.86 28.3,-9.07 41.23,-7.28 -12,-0.93 -25.16,2 -37.22,9 -24.999999,14.42 -31.639999,37.46 -31.699999,40.35 0,0.09 0,0.19 0,0.29 l 0.16,-0.21 c 12.369999,-14.1 50.779999,-4.56 73.059999,-30 10,-11.37 20,-25.29 20.57,-45.910004 -30.71,19.920004 -72.31,16.670004 -86.859999,33.220004 z"
     id="path20" />
  <path
     class="cls-4"
     d="m 157.52337,99.011956 v 0 l -0.67,0.22 z"
     id="path22" />
  <path
     class="cls-4"
     d="m 145.55337,102.39196 -1.45,0.36 v 0 z"
     id="path24" />
  <path
     class="cls-4"
     d="m 168.67337,81.541956 v -0.09 0 c -0.08,-0.26 -0.16,-0.52 -0.23,-0.78 0,0.08 0,0.17 0,0.22 q 0.16,0.35 0.23,0.65 z"
     id="path26" />
  <path
     class="cls-4"
     d="m 158.03337,98.831956 h -0.13 v 0 z"
     id="path28" />
  <path
     class="cls-4"
     d="m 170.92337,92.601956 c 0,-0.29 -0.07,-0.57 -0.11,-0.86 0,0.26 -0.07,0.4 -0.16,0.36 -0.4,-0.19 -1.23,-3.8 -0.92,-4.56 0.15,-0.18 0.39,0.33 0.61,1.06 q -0.28,-1.57 -0.63,-3.12 a 16.89,16.89 0 0 1 -0.88,-2.82 0.56,0.56 0 0 1 0,0.26 c 0,0.05 -0.08,0.06 -0.14,0 a 9.93,9.93 0 0 1 0.6,1.59 c 0.4,1.4 0.52,2.64 0.23,2.5 -0.29,-0.14 -1.51,-3.78 -1.24,-4.47 0,0 0.07,0 0.12,0 a 4.27,4.27 0 0 1 -0.27,-0.59 c 0,0.1 -0.07,0.14 -0.14,0.11 -0.43,-0.2 -1.79,-3.71 -1.56,-4.36 0.19,-0.21 0.7,0.72 1.1,1.76 -0.06,-0.25 -0.11,-0.49 -0.17,-0.74 a 6.88,6.88 0 0 1 -0.52,-2 c 0.08,-0.19 0.4,0.34 0.73,1.08 -0.34,-1 -0.71,-2 -1.09,-2.93 a 18.14,18.14 0 0 1 -1.76,-3.85 v -0.06 c 0,0 0,0 0,0 -0.18,-0.38 -0.36,-0.76 -0.55,-1.14 0.17,0.39 0.27,0.69 0.22,0.74 a 15.21,15.21 0 0 1 -2.3,-4 v 0 a 5.93,5.93 0 0 1 1.23,1.68 c -0.56,-1.07 -1.15,-2.12 -1.76,-3.15 a 22.49,22.49 0 0 1 -2.53,-3.7 v 0 0 a 2.42,2.42 0 0 1 0.4,0.4 c -0.49,-0.73 -1,-1.44 -1.51,-2.14 a 31.24,31.24 0 0 1 -2.45,-3 v 0 0 l 0.15,0.11 c -0.54,-0.66 -1.1,-1.31 -1.66,-1.95 a 32.89,32.89 0 0 1 -2.44,-2.53 v 0 0 l 0.15,0.1 q -0.77,-0.8 -1.56,-1.56 c -0.84,-0.65 -2.61,-2.15 -2.84,-2.42 v 0 0 a 0.83,0.83 0 0 1 0.28,0.15 c 0.31,0.24 0.61,0.5 0.91,0.75 a 69.45,69.45 0 0 0 -39.43,-17.95 3.36,3.36 0 0 1 0.76,0.24 v 0 a 16.62,16.62 0 0 1 -2.68,-0.4 l -0.3,-0.06 h -0.6 a 16.17,16.17 0 0 1 2.94,0.63 v 0 a 25,25 0 0 1 -2.71,-0.36 6.13,6.13 0 0 1 -1.71,-0.36 h 0.1 c -0.79,0 -1.59,-0.05 -2.4,-0.06 a 4.42,4.42 0 0 1 1.1,0.21 v 0 a 21,21 0 0 1 -2.78,-0.08 c -0.6,-0.05 -0.999999,-0.08 -1.249999,-0.12 q -1,0 -2.1,0.09 a 1.5,1.5 0 0 1 0.39,0.09 v 0 a 18.34,18.34 0 0 1 -2.81,0.19 c -0.49,0 -0.87,0 -1.16,0 -0.81,0.09 -1.61,0.18 -2.4,0.3 0.33,0 0.58,0 0.62,0.11 v 0 a 14.35,14.35 0 0 1 -2.78,0.48 8.85,8.85 0 0 1 -1.65,0.07 c -1,0.21 -2.06,0.44 -3.07,0.7 0.9,-0.18 1.71,-0.26 1.84,-0.06 v 0 a 9.6,9.6 0 0 1 -2.7,0.78 c -1.2,0.23 -2,0.26 -1.87,0.09 a 1.31,1.31 0 0 1 0.42,-0.22 l -1,0.3 v 0 0 a 10,10 0 0 1 -2.66,1 9.77,9.77 0 0 1 -1.13,0.24 c -1,0.35 -1.89,0.72 -2.81,1.11 0.65,-0.18 1.16,-0.25 1.22,-0.09 v 0 a 7.14,7.14 0 0 1 -2.52,1.29 c -1.23,0.43 -2,0.53 -1.85,0.23 0,0 0.09,-0.07 0.12,-0.11 l -0.68,0.33 v 0 a 7,7 0 0 1 -2.45,1.5 7.44,7.44 0 0 1 -1.36,0.46 c -1.12,0.64 -2.22,1.32 -3.3,2 1,-0.57 2.07,-1 2.21,-0.69 v 0 c -0.07,0.48 -1.41,1.35 -2.24,1.79 -1.14,0.6 -2,0.77 -1.85,0.39 a 1.84,1.84 0 0 1 0.59,-0.68 c -0.44,0.3 -0.88,0.59 -1.31,0.9 0.1,0 0.18,0 0.21,0.09 v 0 c -0.07,0.48 -1.3,1.44 -2.15,2 -0.85,0.56 -1.47,0.76 -1.69,0.67 -0.25,0.2 -0.51,0.4 -0.75,0.61 a 8.65,8.65 0 0 1 -1.8,2.03 c -0.21,0.15 -0.4,0.27 -0.59,0.38 -0.86,0.8 -1.72,1.62 -2.54,2.46 0.49,-0.34 0.93,-0.54 1.12,-0.4 l 0.01,0.12 c 0.06,0.59 -1,1.77 -1.76,2.42 -1,0.83 -1.77,1.11 -1.77,0.62 a 1.12,1.12 0 0 1 0.11,-0.38 69.59,69.59 0 0 0 -17.58,41.26 84.49,84.49 0 0 1 8.56,1.55 l -1.14,-0.29 c 0.29,-1.16 1,-2.07 1.79,-1.72 a 1.17,1.17 0 0 1 0.26,0.17 2.88,2.88 0 0 1 0.6,2.23 l -0.61,-0.16 c 2.32,0.58 4.61,1.26 6.9,2 l -1.11,-0.36 a 1.81,1.81 0 0 1 -0.12,-0.28 c -0.64,-2 0.93,-4.41 2.37,-3.6 a 0.78,0.78 0 0 1 0.15,0.1 c 1.07,0.91 0.89,2.64 0.42,3.57 a 2.45,2.45 0 0 1 -0.72,0.89 c 0.87,0.31 1.73,0.660004 2.59,1.000004 -0.52,-0.21 -1,-0.43 -1.55,-0.620004 0.08,-1.63 1.34,-3 2.58,-2.4 l 0.16,0.1 a 3,3 0 0 1 0.53,3.570004 v 0 l 0.56,0.25 c 0.41,-1.16 1.44,-1.920004 2.49,-1.4 l 0.17,0.1 a 2.7,2.7 0 0 1 0.87,2.87 l 0.66,0.33 a 1.77,1.77 0 0 1 2.26,-0.78 l 0.18,0.1 a 2.59,2.59 0 0 1 1,2.45 q 2.1,1.13 4.17,2.39 a 87.55,87.55 0 0 1 24.33,21.9 31.7,31.7 0 0 1 5.22,-7.77 28.6,28.6 0 0 1 2,-2.08 v 0 a 2.23,2.23 0 0 1 -0.2,-0.41 2,2 0 0 1 -0.07,-0.48 9.62,9.62 0 0 1 -7,3.11 9.49,9.49 0 0 1 -3.31,-0.6 c -5.41,-2 -8.56,-8.49 -7,-14.52 1.25,-4.91 5.18,-8.210004 9.8,-8.210004 a 9.71,9.71 0 0 1 3.31,0.59 l 0.74,0.32 a 2.44,2.44 0 0 1 3.26,-2.46 2.39,2.39 0 0 1 1,3.330004 2.36,2.36 0 0 1 -1.34,1.13 11.49,11.49 0 0 1 2,2.47 2.25,2.25 0 0 1 2.239999,3.5 2.47,2.47 0 0 1 -0.6,0.74 12.67,12.67 0 0 1 0.2,3.26 2.46,2.46 0 0 1 2.21,-0.29 2.42,2.42 0 0 1 1.2,3.36 2.38,2.38 0 0 1 -4.119999,0.27 12.54,12.54 0 0 1 -0.6,1.4 2.16,2.16 0 0 1 2.169999,0.54 v 0 q 1.56,-1.06 3.27,-2 a 2.45,2.45 0 0 1 3.15,-1.64 v 0 0 l 1,-0.47 a 2.21,2.21 0 0 1 -2.26,-1.57 2.46,2.46 0 0 1 3.09,-3.11 2.43,2.43 0 0 1 0.71,4 l 1.23,-0.49 v 0 a 2.42,2.42 0 0 1 3.08,-1.77 2.52,2.52 0 0 1 0.7,0.43 c 1,-0.32 2,-0.64 3,-1 a 2.43,2.43 0 0 1 2.89,-3 2.26,2.26 0 0 1 1.5,1.78 v 0 c 2.21,-0.59 4.5,-1.15 6.83,-1.7 a 2.3,2.3 0 0 1 2.64,-2.52 2.16,2.16 0 0 1 1.46,1.55 l 1.25,-0.29 4.9,-1.16 c -0.51,-1.53 0.35,-3.56 2,-3.35 a 2.31,2.31 0 0 1 1.49,2.5 l 0.62,-0.15 c 0.24,-0.95 0.88,-1.73 1.84,-1.64 a 1.67,1.67 0 0 1 1.1,0.9 c 1.69,-0.44 3.38,-0.89 5.07,-1.38 -0.76,-1.370004 -0.42,-3.940004 1,-4.000004 1.06,0.18 1.46,1.69 1.41,2.71 a 3.28,3.28 0 0 1 -0.08,0.56 l 0.56,-0.17 c -0.2,-1.32 0.16,-2.86 1.17,-2.92 0.83,0.1 1.25,1.19 1.34,2.14 l 0.41,-0.13 c 0,-1 0.38,-1.91 1.06,-2 0.68,-0.09 0.91,0.61 1.11,1.27 l 0.62,-0.21 c 0.12,-0.62 0.39,-1.11 0.82,-1.2 a 1,1 0 0 1 0.81,0.64 l 1,-0.37 a 0.92,0.92 0 0 1 0.5,-0.58 0.6,0.6 0 0 1 0.47,0.21 l 1.37,-0.52 a 0.56,0.56 0 0 1 0.16,-0.15 0.32,0.32 0 0 1 0.17,0 l 1.53,-0.63 v 0 l 1.27,-0.55 a 0.66,0.66 0 0 1 0.12,-0.22 0.21,0.21 0 0 1 0.24,0.07 l 0.7,-0.31 a 1.42,1.42 0 0 1 0.18,-0.67 c 0.13,-0.1 0.28,0.09 0.41,0.42 l 0.3,-0.13 a 3.7,3.7 0 0 1 0.08,-1.35 c 0,0 0.11,0.15 0.14,0.15 z m -2.29,-7 c 0.39,1.41 0.42,2.63 0.06,2.44 -0.53,-0.26 -1.61,-3.85 -1.16,-4.5 0.28,-0.22 0.8,0.89 1.1,2 z m -114.879999,-22.71 c 0.57,0.78 -0.18,2.17 -0.9,2.92 -1.2,1.22 -2.49,1.21 -2.48,0 0.02,-1.62 2.34,-3.92 3.38,-2.92 z m -2.72,-4.93 c 0.05,-1.41 2.75,-3.73 3.49,-3 l 0.06,0.07 c 0.3,0.69 -0.65,1.94 -1.42,2.61 -1.13,0.99 -2.13,1.14 -2.13,0.32 z m -4,12 c 0,-1.72 2.11,-3.94 3.08,-3.17 l 0.1,0.09 c 0.59,0.81 -0.09,2.28 -0.76,3.06 -1.11,1.33 -2.42,1.35 -2.42,0.06 z m 1.63,6.74 c -1,1.38 -2.37,1.4 -2.56,0.06 -0.26,-1.81 1.77,-4.18 2.89,-3.38 a 1.06,1.06 0 0 1 0.11,0.09 c 0.72,0.9 0.17,2.44 -0.44,3.27 z m 0.73,-15.28 c -1,1 -2,1.22 -2.06,0.37 0,-1.48 2.53,-4 3.27,-3.21 l 0.07,0.07 c 0.36,0.76 -0.56,2.09 -1.28,2.81 z m -1,3.16 0.09,0.08 c 0.46,0.79 -0.27,2.23 -0.94,3 -1.05,1.2 -2.16,1.32 -2.21,0.22 -0.11,-1.6 2.15,-4.04 3.01,-3.26 z m -1.56,6.51 0.09,0.09 c 0.61,0.84 0,2.37 -0.61,3.19 -1,1.28 -2.14,1.4 -2.33,0.25 -0.29,-1.75 1.81,-4.35 2.85,-3.53 z m -0.8,6.85 0.11,0.1 c 0.74,0.87 0.28,2.47 -0.29,3.34 -0.94,1.43 -2.24,1.48 -2.48,0.1 -0.34,-1.86 1.52,-4.34 2.66,-3.54 z m -0.14,7.16 0.13,0.1 c 0.86,0.89 0.52,2.57 0,3.47 -0.84,1.49 -2.2,1.56 -2.58,0.13 -0.56,-1.98 1.14,-4.54 2.43,-3.7 z m 0,-1.19 c -0.46,-1.94 1.4,-4.4 2.69,-3.55 a 0.57,0.57 0 0 1 0.13,0.1 c 0.84,0.88 0.43,2.5 -0.14,3.37 -0.98,1.44 -2.38,1.48 -2.72,0.08 z m 5.54,-1.1 0.14,0.09 c 1,0.9 0.57,2.53 0,3.41 -1,1.52 -2.59,1.45 -2.91,-0.13 -0.43,-1.93 1.37,-4.17 2.73,-3.37 z m 3.14,2.47 a 0.78,0.78 0 0 1 0.15,0.1 c 1,0.89 0.71,2.54 0.15,3.42 -1,1.53 -2.68,1.46 -3.09,-0.12 -0.53,-1.95 1.31,-4.2 2.75,-3.4 z m 3.57,2.58 c 1.13,0.91 0.84,2.56 0.28,3.45 -1,1.65 -2.92,1.46 -3.3,-0.33 -0.38,-1.79 1.33,-4.12 2.98,-3.12 z m -3.36,-17.69 c -0.06,-1.67 2.13,-3.79 3.42,-2.82 0.77,0.82 0.13,2.26 -0.57,3 -1.23,1.36 -2.8,1.24 -2.85,-0.18 z m 5.13,-16.63 c 0.4,0.7 -0.55,1.9 -1.36,2.53 -1.26,1 -2.46,1 -2.38,0.07 0.12,-1.34 2.86,-3.54 3.74,-2.6 z m -0.82,-2.65 c 0.31,-1.18 3.23,-3.16 3.88,-2.32 0.26,0.62 -0.82,1.69 -1.66,2.26 -1.28,0.91 -2.45,0.94 -2.22,0.09 z m -2,3.2 c -1.18,0.9 -2.25,1 -2.19,0.24 0.09,-1.29 3,-3.44 3.68,-2.75 l 0.06,0.07 c 0.3,0.69 -0.71,1.89 -1.53,2.47 z m 0.68,4 c 0.14,-1.44 2.73,-3.44 3.72,-2.51 0.51,0.72 -0.38,2 -1.18,2.61 -1.28,1.06 -2.64,1.01 -2.52,-0.12 z m 2.48,-5.3 c 0.18,-1.25 3.08,-3.25 3.91,-2.4 0.38,0.66 -0.64,1.78 -1.47,2.36 -1.33,0.91 -2.54,0.92 -2.42,0.02 z m 3.17,-4.88 c 0.36,-1.1 3.4,-2.88 4,-2.08 0.24,0.58 -0.9,1.56 -1.78,2.07 -1.32,0.78 -2.46,0.78 -2.2,-0.01 z m 2.25,4.4 c 0.48,0.68 -0.48,1.83 -1.31,2.43 -1.39,1 -2.73,0.94 -2.56,-0.12 0.23,-1.38 2.93,-3.23 3.89,-2.33 z m -1.12,-2.64 c 0.22,-1.16 3.22,-3 4,-2.15 0.35,0.62 -0.72,1.65 -1.6,2.17 -1.32,0.85 -2.55,0.85 -2.38,-0.04 z m 22.4,-11.87 c 0.14,0.42 -1.25,1 -2.16,1.24 -1.45,0.41 -2.57,0.36 -2.34,-0.1 0.4,-0.82 4.02,-1.74 4.52,-1.16 z m -0.32,-2.37 c 0.42,-0.59 4.38,-1.2 4.65,-0.71 0,0.3 -1.52,0.66 -2.47,0.82 -1.42,0.22 -2.37,0.17 -2.16,-0.13 z m 12.33,5.41 c -1.44,0.43 -2.66,0.37 -2.46,-0.13 0.3,-0.75 3.499999,-1.52 4.209999,-1 0.32,0.35 -0.909999,0.88 -1.749999,1.13 z m 2.999999,-0.12 c 0.35,0.38 -0.79,1 -1.6,1.24 -1.469999,0.51 -2.739999,0.43 -2.449999,-0.15 0.37,-0.78 3.269999,-1.56 4.009999,-1.09 z m -4.179999,-1 c -1.49,0.37 -2.7,0.29 -2.43,-0.18 0.39,-0.71 3.68,-1.38 4.33,-0.88 0.21,0.37 -1.07,0.88 -1.94,1.08 z m -8.94,0.52 c 0.3,0.47 -1,1.13 -1.86,1.43 -1.51,0.53 -2.75,0.45 -2.51,-0.15 0.33,-0.9 3.63,-1.87 4.33,-1.26 z m -0.5,-1.7 c 0.54,-0.75 3.93,-1.43 4.48,-0.9 0.18,0.39 -1.19,0.9 -2.1,1.12 -1.55,0.41 -2.69,0.3 -2.38,-0.22 z m -1.07,5.76 c 0.33,-0.93 3.24,-2.09 4.16,-1.42 0.43,0.49 -0.72,1.24 -1.55,1.6 -1.5,0.67 -2.85,0.58 -2.61,-0.15 z m 1.76,1.4 c 0.39,-0.94 3.1,-2 4,-1.44 0.49,0.5 -0.59,1.3 -1.39,1.68 -1.55,0.73 -3,0.6 -2.61,-0.24 z m 2.88,-3.37 c 0.42,-0.87 3.43,-1.73 4.18,-1.19 0.37,0.43 -0.82,1.07 -1.65,1.38 -1.56,0.55 -2.88,0.44 -2.57,-0.19 z m 1.5,-4.94 c 0.37,-0.63 4,-1.18 4.55,-0.69 0.15,0.34 -1.25,0.72 -2.17,0.89 -1.53,0.26 -2.64,0.17 -2.42,-0.2 z m 4.51,-1.75 c 0.28,-0.48 4.259999,-0.75 4.679999,-0.31 0.06,0.27 -1.68,0.47 -2.36,0.53 -1.479999,0.12 -2.499999,0.02 -2.359999,-0.22 z m 1.85,-0.59 c -1.47,0.08 -2.44,0 -2.26,-0.25 0.37,-0.44 4.389999,-0.6 4.729999,-0.19 -0.03,0.25 -1.82,0.41 -2.509999,0.44 z m -0.3,-0.75 c -1.48,0.05 -2.43,-0.07 -2.2,-0.27 0.45,-0.39 4.499999,-0.46 4.749999,-0.08 -0.08,0.23 -1.9,0.33 -2.589999,0.35 z m 2.479999,-0.95 a 10.2,10.2 0 0 1 -2.629999,0.26 c -0.62,0 -2.08,0 -2.17,-0.22 0.12,-0.41 4.559999,-0.44 4.759999,-0.04 z m -4.729999,-0.61 c 0.25,-0.36 4.689999,-0.31 4.789999,0.06 a 12.16,12.16 0 0 1 -2.689999,0.18 c -0.66,0 -2.1,-0.04 -2.14,-0.24 z m 0.13,3 c 0.09,0.31 -1.36,0.64 -2.3,0.78 -1.51,0.23 -2.59,0.13 -2.31,-0.21 0.43,-0.54 4.14,-0.99 4.57,-0.53 z m -2.85,-0.17 c -1.45,0.18 -2.45,0.1 -2.27,-0.18 0.34,-0.54 4.33,-1 4.69,-0.5 -0.01,0.35 -1.82,0.65 -2.46,0.72 z m -0.36,-0.88 c -1.45,0.14 -2.42,0.06 -2.19,-0.19 0.44,-0.5 4.44,-0.84 4.71,-0.4 -0.08,0.32 -1.87,0.56 -2.56,0.63 z m -2,1.87 c 0.11,0.37 -1.31,0.82 -2.24,1 -1.49,0.32 -2.59,0.25 -2.33,-0.16 0.4,-0.63 4.07,-1.32 4.54,-0.8 z m -4.34,2.38 c 0.23,0.45 -1.11,1.07 -2,1.35 -1.53,0.48 -2.73,0.39 -2.41,-0.18 0.44,-0.84 3.79,-1.72 4.38,-1.13 z m -5.59,4.72 c -1.55,0.65 -2.86,0.53 -2.5,-0.22 0.46,-1 3.48,-2.13 4.27,-1.43 0.31,0.53 -0.95,1.34 -1.8,1.69 z m 0.63,-3.06 c 0.25,0.48 -1,1.2 -1.92,1.56 -1.48,0.57 -2.72,0.49 -2.44,-0.14 0.35,-0.84 3.63,-2.09 4.33,-1.38 z m -5.31,5.42 c -1.52,0.74 -2.85,0.64 -2.53,-0.2 0.4,-1.07 3.35,-2.42 4.19,-1.66 0.37,0.55 -0.75,1.38 -1.66,1.86 z m 2.31,-5.26 c -1.43,0.5 -2.54,0.48 -2.35,0 0.36,-0.94 3.88,-2.07 4.43,-1.41 0.16,0.39 -1.12,1.07 -2.08,1.41 z m -1.9,1.85 c 0.29,0.53 -0.89,1.36 -1.82,1.78 -1.45,0.65 -2.68,0.6 -2.44,-0.11 0.35,-0.98 3.53,-2.43 4.26,-1.67 z m -3,0.21 c -1.47,0.62 -2.63,0.58 -2.3,-0.08 0.45,-0.93 3.69,-2.31 4.28,-1.59 0.24,0.49 -1,1.27 -1.89,1.67 z m -1.79,2.08 c 0.32,0.58 -0.81,1.51 -1.71,2 -1.41,0.75 -2.65,0.72 -2.45,-0.06 0.32,-1.09 3.44,-2.75 4.21,-1.94 z m -2.93,0.3 c -1.43,0.71 -2.58,0.69 -2.29,0 0.41,-1 3.56,-2.6 4.17,-1.84 0.26,0.5 -0.92,1.38 -1.83,1.84 z m -4.19,6.19 c 0.28,-1.27 3.07,-3 4,-2.1 0.45,0.64 -0.56,1.7 -1.43,2.25 -1.43,0.92 -2.77,0.84 -2.57,-0.15 z m 1.77,1.78 c 0.33,-1.31 2.94,-2.87 3.94,-2 0.54,0.65 -0.42,1.75 -1.26,2.32 -1.45,0.96 -2.94,0.81 -2.66,-0.32 z m 2.62,-4.71 c 0.35,-1.17 3.22,-2.69 4.11,-1.88 0.41,0.59 -0.66,1.56 -1.55,2.06 -1.46,0.83 -2.8,0.74 -2.54,-0.18 z m 5.72,-0.16 c 0.49,0.61 -0.52,1.61 -1.38,2.13 -1.46,0.87 -2.87,0.79 -2.69,-0.16 0.25,-1.21 3.08,-2.8 4.09,-1.97 z m -2.11,3.69 c 0.29,-1.25 2.92,-2.73 4,-1.94 0.57,0.62 -0.36,1.67 -1.21,2.21 -1.53,0.95 -3.06,0.8 -2.79,-0.27 z m 2.5,-4.45 c 0.3,-1.11 3.2,-2.53 4.15,-1.76 0.44,0.57 -0.61,1.48 -1.5,1.94 -1.49,0.75 -2.88,0.66 -2.65,-0.18 z m 1.81,1.6 c 0.36,-1.14 3,-2.48 4,-1.74 0.52,0.58 -0.47,1.53 -1.33,2 -1.49,0.86 -2.98,0.7 -2.67,-0.29 z m 2.76,-4.07 c 0.36,-1 3.31,-2.25 4.21,-1.53 0.39,0.51 -0.7,1.32 -1.61,1.73 -1.52,0.66 -2.88,0.56 -2.6,-0.23 z m 1.64,1.59 c 0.26,-1 3.14,-2.36 4.13,-1.64 0.46,0.52 -0.57,1.37 -1.45,1.81 -1.48,0.71 -2.88,0.62 -2.68,-0.2 z m 1.88,1.5 c 0.33,-1.07 3,-2.33 4,-1.64 0.53,0.53 -0.43,1.43 -1.28,1.89 -1.51,0.8 -3.01,0.66 -2.72,-0.28 z m 5.93,-0.12 c 0.59,0.54 -0.29,1.47 -1.11,2 -1.45,0.88 -3,0.76 -2.78,-0.2 0.22,-0.96 2.79,-2.52 3.89,-1.83 z m -1.65,3.27 c 0.29,-1.12 2.66,-2.38 3.75,-1.75 0.65,0.55 -0.16,1.52 -0.94,2 -1.47,0.98 -3.1,0.82 -2.81,-0.28 z m 1.95,-4.1 c 0.3,-1 2.91,-2.17 3.9,-1.56 0.55,0.51 -0.46,1.35 -1.23,1.77 -1.58,0.81 -2.92,0.57 -2.67,-0.24 z m 2.54,-3.53 c 0.32,-0.9 3.24,-1.85 4.06,-1.32 0.42,0.44 -0.7,1.13 -1.5,1.47 -1.46,0.57 -2.8,0.5 -2.56,-0.18 z m 1.71,1.24 c 0.4,-0.93 3.05,-1.86 3.88,-1.35 0.48,0.45 -0.56,1.18 -1.33,1.54 -1.62,0.72 -2.86,0.5 -2.55,-0.22 z m 6.449999,42.35 a 2.28,2.28 0 0 1 0.89,3.19 2.11,2.11 0 0 1 -3.929999,-0.16 2.41,2.41 0 0 1 3.039999,-3.06 z m 2.48,6.75 a 2.37,2.37 0 0 1 1,3.26 2.19,2.19 0 0 1 -4.06,-0.11 2.43,2.43 0 0 1 3.06,-3.15 z m -1,-1.77 a 2.4,2.4 0 0 1 3,-3.11 2.32,2.32 0 0 1 1,3.2 2.11,2.11 0 0 1 -4,-0.09 z m 14.08,-43.1 c -0.18,-1 1.22,-2.34 2,-2 0.53,0.3 0.24,1.18 -0.14,1.7 -0.64,1 -1.69,1.04 -1.82,0.3 z m 2.16,1.69 c 0.66,0.35 0.48,1.36 0.14,2 -0.61,1.08 -1.8,1.3 -2.09,0.39 -0.29,-0.91 0.94,-2.76 1.99,-2.39 z m -0.76,7.85 c 0.89,0.44 0.82,1.65 0.5,2.37 -0.62,1.36 -2.13,1.53 -2.56,0.29 -0.43,-1.24 0.81,-3.09 2.1,-2.66 z m -1.28,13.54 a 2.17,2.17 0 0 1 0.89,2.82 c -0.65,1.55 -2.52,1.73 -3.17,0.29 -0.65,-1.44 0.57,-3.66 2.28,-3.11 z m -1.83,-25.16 c -1,0.89 -2.06,0.87 -2.06,0.19 0,-0.9 1.76,-2.1 2.57,-1.76 0.48,0.31 -0.01,1.1 -0.51,1.57 z m -1.81,23.7 a 2.06,2.06 0 0 1 0.74,2.8 c -0.77,1.6 -2.79,1.62 -3.27,0 -0.48,-1.62 0.97,-3.36 2.53,-2.8 z m -2.75,-22.09 c -1.11,0.94 -2.34,0.87 -2.33,0.11 0,-1 2,-2.23 2.92,-1.82 0.6,0.37 -0.01,1.22 -0.59,1.71 z m -1.91,38.8 a 2,2 0 0 1 -3.8,-0.06 2.36,2.36 0 0 1 2.9,-3.06 2.27,2.27 0 0 1 0.9,3.12 z m 0.2,-9.41 c -0.5,-1.56 1,-3.51 2.65,-2.92 a 2.13,2.13 0 0 1 0.82,2.92 c -0.81,1.65 -2.95,1.65 -3.47,0 z m 3.19,8 a 2.32,2.32 0 0 1 1.06,3.12 2,2 0 0 1 -3.79,0 c -0.64,-1.65 0.84,-3.71 2.73,-3.09 z m -0.9,-1.67 c -0.61,-1.62 0.81,-3.67 2.62,-3.08 a 2.29,2.29 0 0 1 1,3 1.93,1.93 0 0 1 -3.62,0.11 z m 1.76,-4.7 c -0.56,-1.56 0.78,-3.57 2.5,-3 a 2.22,2.22 0 0 1 0.95,2.93 1.81,1.81 0 0 1 -3.45,0.1 z m 5,3.19 a 2.35,2.35 0 0 1 1.13,3 1.9,1.9 0 0 1 -3.59,0.15 c -0.69,-1.56 0.67,-3.66 2.48,-3.12 z m -0.81,-1.35 c -0.82,-1.58 0.41,-3.85 2.24,-3.3 a 2.32,2.32 0 0 1 1.08,2.94 1.78,1.78 0 0 1 -3.32,0.36 z m 1.45,-4.67 c -0.77,-1.51 0.37,-3.72 2.08,-3.21 a 2.25,2.25 0 0 1 1,2.83 c -0.53,1.55 -2.36,1.78 -3.08,0.34 z m 1.34,-4.52 c -0.69,-1.42 0.38,-3.58 1.93,-3.12 a 2.21,2.21 0 0 1 1,2.71 c -0.54,1.51 -2.24,1.75 -2.93,0.37 z m 0.65,-6 c -0.56,1.46 -2.17,1.67 -2.74,0.35 -0.57,-1.32 0.56,-3.35 2,-2.9 a 2,2 0 0 1 0.74,2.51 z m -1.25,-3.59 c -0.66,-1.25 0.44,-3.23 1.63,-3 h 0.13 a 1.93,1.93 0 0 1 0.67,2.4 c -0.48,1.38 -1.86,1.64 -2.43,0.56 z m 1.4,-13.06 c -0.61,1.08 -1.63,1.16 -1.84,0.4 -0.26,-1 1,-2.45 1.79,-2.17 0.55,0.26 0.35,1.2 0.05,1.73 z m -1.66,-4.26 c -0.81,0.86 -1.74,0.9 -1.74,0.27 0,-0.63 1.51,-2 2.17,-1.7 0.4,0.21 -0.01,0.94 -0.43,1.39 z m -1.47,-0.73 c -0.93,0.8 -1.89,0.8 -1.82,0.21 0.09,-0.75 1.77,-1.82 2.43,-1.56 0.37,0.18 -0.13,0.9 -0.61,1.31 z m -1.43,-0.75 c -1.07,0.75 -2,0.72 -1.89,0.15 a 3,3 0 0 1 2.68,-1.42 c 0.38,0.23 -0.37,0.94 -0.79,1.23 z m -1.37,-0.8 c -1.11,0.65 -2.07,0.63 -2,0.15 0.13,-0.68 2.25,-1.64 2.94,-1.33 0.37,0.26 -0.48,0.91 -0.94,1.18 z m -0.68,1.5 c 0.45,0.31 -0.13,1.06 -0.69,1.49 -1.09,0.85 -2.2,0.8 -2.12,0.13 0.09,-0.86 2,-1.97 2.8,-1.62 z m -2.38,0.56 c -1.2,0.79 -2.32,0.7 -2.17,0.06 0.19,-0.82 2.26,-1.83 3,-1.48 0.45,0.32 -0.22,1.02 -0.84,1.42 z m -3.12,2.32 c -1.21,0.88 -2.45,0.78 -2.37,0.05 0.1,-1 2.24,-2.11 3.13,-1.69 0.52,0.42 -0.13,1.23 -0.76,1.64 z m -1.9,-1.11 c -1.32,0.82 -2.56,0.69 -2.41,0 0.2,-0.92 2.48,-2 3.34,-1.54 0.49,0.39 -0.25,1.16 -0.93,1.58 z m 1.73,49.43 a 2.38,2.38 0 0 1 1.14,3.25 2.19,2.19 0 0 1 -4.07,0 2.43,2.43 0 0 1 2.93,-3.21 z m -1,-1.75 a 2.38,2.38 0 0 1 2.83,-3.19 2.35,2.35 0 0 1 1.1,3.19 2.1,2.1 0 0 1 -3.91,0.04 z m 5.71,3.54 a 2.41,2.41 0 0 1 1.22,3.230004 2.18,2.18 0 0 1 -4,0.07 2.41,2.41 0 0 1 2.8,-3.260004 z m -1,-1.74 a 2.37,2.37 0 0 1 2.72,-3.27 2.4,2.4 0 0 1 1.2,3.18 2.09,2.09 0 0 1 -3.93,0.13 z m 1.72,-5 c -0.69,-1.66 0.69,-3.8 2.6,-3.23 a 2.37,2.37 0 0 1 1.16,3.11 2,2 0 0 1 -3.77,0.19 z m 5.59,3.32 a 2.42,2.42 0 0 1 1.28,3.16 2.06,2.06 0 0 1 -3.88,0.19 c -0.77,-1.61 0.6,-3.83 2.59,-3.28 z m -1,-1.68 c -0.75,-1.65 0.55,-3.84 2.45,-3.32 a 2.43,2.43 0 0 1 1.28,3.1 2,2 0 0 1 -3.79,0.29 z m 1.44,-5 c -0.72,-1.61 0.49,-3.76 2.31,-3.26 a 2.41,2.41 0 0 1 1.24,3 1.86,1.86 0 0 1 -3.61,0.37 z m 5.43,-17.27 a 2.32,2.32 0 0 1 1.11,2.72 c -0.41,1.59 -2.07,1.89 -2.82,0.5 -0.75,-1.39 0.1,-3.52 1.65,-3.11 z m 0,20.36 a 2.44,2.44 0 0 1 1.36,3.07 1.93,1.93 0 0 1 -3.67,0.33 c -0.86,-1.5 0.35,-3.77 2.24,-3.29 z m -1,-1.44 c -1,-1.6 0.12,-4 2,-3.54 a 2.48,2.48 0 0 1 1.35,3 1.82,1.82 0 0 1 -3.38,0.65 z m 2.05,-9.66 c -0.9,-1.5 0,-3.83 1.68,-3.4 a 2.46,2.46 0 0 1 1.29,2.83 c -0.38,1.66 -2.13,2 -2.97,0.57 z m 0.93,-4.55 c -1,-1.43 -0.2,-3.76 1.24,-3.51 h 0.15 a 2.44,2.44 0 0 1 1.24,2.73 c -0.29,1.57 -1.77,1.99 -2.63,0.78 z m 1.74,-8 h 0.14 a 2.43,2.43 0 0 1 1.19,2.61 c -0.22,1.46 -1.59,1.89 -2.4,0.75 -0.95,-1.29 -0.25,-3.54 1.07,-3.32 z m 0.34,-4.28 h 0.13 a 2.43,2.43 0 0 1 1.14,2.48 c -0.16,1.34 -1.27,1.82 -2,0.89 -1.06,-1.14 -0.52,-3.54 0.73,-3.33 z m 2.2,14.46 h 0.16 a 2.57,2.57 0 0 1 1.41,2.83 c -0.27,1.61 -1.82,2.07 -2.77,0.84 -1.13,-1.41 -0.33,-3.86 1.2,-3.63 z m -0.64,-1.1 c -1.08,-1.42 -0.41,-3.81 1,-3.6 a 0.66,0.66 0 0 0 0.15,0 2.6,2.6 0 0 1 1.37,2.73 c -0.18,1.64 -1.6,2.11 -2.52,0.91 z m 0.52,-4.51 c -1.1,-1.21 -0.72,-3.63 0.57,-3.64 a 1.26,1.26 0 0 1 0.27,0 2.58,2.58 0 0 1 1.33,2.61 c -0.12,1.5 -1.3,2.01 -2.17,1.07 z m 0.38,-8.72 c -1.12,-1.06 -0.85,-3.4 0.11,-3.45 a 0.86,0.86 0 0 1 0.22,0 c 0.83,0.31 1.23,1.59 1.23,2.35 0.01,1.29 -0.8,1.86 -1.56,1.14 z m 1.77,3.23 c -0.06,1.38 -1.1,1.91 -1.93,1 -1.08,-1.2 -0.71,-3.65 0.52,-3.49 h 0.12 a 2.59,2.59 0 0 1 1.29,2.53 z m -1.83,-7.23 c -1.1,-0.86 -1,-3.29 -0.17,-3.37 a 0.63,0.63 0 0 1 0.19,0 c 0.72,0.27 1.13,1.47 1.18,2.19 0.1,1.15 -0.49,1.72 -1.2,1.18 z m 2,-2.78 h 0.18 c 0.71,0.25 1.21,1.46 1.32,2.21 0.17,1.14 -0.35,1.75 -1,1.23 -1.16,-0.83 -1.32,-3.32 -0.5,-3.44 z m 1.35,12.76 a 0.77,0.77 0 0 1 0.26,0 2.72,2.72 0 0 1 1.45,2.6 c 0,1.47 -1.12,2 -2,1.08 -1.17,-1.16 -0.95,-3.62 0.3,-3.68 z m -0.26,-4.45 a 0.9,0.9 0 0 1 0.23,0 2.81,2.81 0 0 1 1.42,2.48 c 0,1.33 -0.82,1.94 -1.67,1.19 -1.15,-1 -1.14,-3.59 0.03,-3.67 z m 1.91,-3.67 a 0.67,0.67 0 0 1 0.2,0 c 0.79,0.25 1.34,1.55 1.47,2.35 0.19,1.21 -0.35,1.88 -1.11,1.35 -1.2,-0.86 -1.41,-3.55 -0.56,-3.7 z m 1,-3.7 h 0.15 c 0.67,0.2 1.32,1.43 1.55,2.2 0.32,1.1 0.06,1.79 -0.57,1.46 -1.13,-0.62 -1.77,-3.46 -1.13,-3.66 z m 21.71,15.92 c 0.55,1.26 0.62,2.27 0.14,2.11 -0.33,-0.1 -0.94,-0.83 -1.53,-2.2 0,0 -0.78,-1.82 -0.31,-2.07 0.53,-0.04 1.34,1.27 1.74,2.16 z m -0.49,-2.59 c 0.39,-0.08 1.16,1 1.67,2.09 0.58,1.24 0.73,2.27 0.29,2.15 -0.56,-0.17 -2.53,-3.79 -1.92,-4.24 z m -5.79,-6.33 c 0.64,1.09 0.84,2 0.44,1.92 -0.75,-0.1 -2.86,-3.64 -2.38,-4 h 0.05 c 0.46,0 1.46,1.21 1.93,2.08 z m -0.8,-2.32 v 0 c 0.4,0 1.35,1.15 1.89,2 0.68,1.09 0.94,2 0.58,2 -0.6,-0.14 -2.83,-3.61 -2.43,-4 z m -0.34,-0.49 c -0.62,-0.06 -3.09,-3.41 -2.78,-3.77 v 0 c 0.37,0 1.39,1.12 2,1.94 0.79,0.99 1.15,1.86 0.82,1.83 z m -1.75,-1.58 c 0.7,1 1,1.88 0.63,1.83 -0.68,-0.1 -3,-3.48 -2.64,-3.8 v 0 c 0.47,-0.01 1.47,1.14 2.05,1.97 z m -1.14,0.2 c 0.67,1 0.9,1.88 0.49,1.8 -0.73,-0.14 -2.94,-3.54 -2.48,-3.83 h 0.05 c 0.48,0.02 1.45,1.19 1.98,2.03 z m -1.28,0.11 c 0.62,1.06 0.78,1.87 0.35,1.77 -0.79,-0.19 -2.84,-3.59 -2.31,-3.84 h 0.05 c 0.53,0.05 1.46,1.24 1.95,2.07 z m -1.42,0 c 0.56,1.06 0.66,1.85 0.2,1.72 -0.84,-0.22 -2.63,-3.38 -2.16,-3.8 h 0.1 c 0.56,0.08 1.45,1.28 1.9,2.11 z m 0.55,4.37 c 0.47,1.18 0.34,2 -0.27,1.71 -1,-0.48 -2.31,-3.57 -1.64,-3.94 h 0.14 c 0.69,0.13 1.52,1.48 1.81,2.26 z m -0.1,-2.15 h 0.06 c 0.61,0.1 1.45,1.38 1.83,2.22 0.53,1.19 0.48,2 -0.11,1.77 -0.99,-0.44 -2.47,-3.75 -1.74,-3.96 z m 1.6,0 h 0.06 c 0.56,0.07 1.44,1.34 1.85,2.18 0.59,1.18 0.62,2 0.06,1.82 -0.94,-0.39 -2.58,-3.7 -1.93,-3.96 z m 1.44,-0.07 h 0.06 c 0.49,0 1.41,1.26 1.88,2.13 0.6,1.1 0.73,2 0.29,1.89 -0.77,-0.13 -2.75,-3.68 -2.19,-3.98 z m 2.5,4.52 h 0.07 c 0.56,0 1.41,1.34 1.81,2.21 0.55,1.23 0.56,2.16 0,1.94 -0.93,-0.36 -2.51,-3.8 -1.84,-4.11 z m 1.47,-0.19 h 0.05 c 0.51,0 1.38,1.29 1.81,2.16 0.61,1.22 0.69,2.17 0.17,2 -0.87,-0.33 -2.56,-3.76 -1.99,-4.12 z m 1.33,-0.32 c 0.41,0 1.26,1.06 1.8,2.09 0.64,1.22 0.8,2.19 0.32,2 -0.61,-0.14 -2.74,-3.69 -2.08,-4.05 z m 1,5 h 0.06 c 0.55,0 1.35,1.32 1.72,2.23 0.52,1.26 0.51,2.25 0,2.06 -0.9,-0.32 -2.36,-3.83 -1.7,-4.25 z m 2.3,-1.3 c -0.58,-0.17 -2.79,-3.67 -2.25,-4.09 0.38,-0.07 1.28,1.13 1.78,2 0.75,1.27 0.98,2.25 0.55,2.13 z m -1.75,-5.06 c -0.51,-0.13 -3,-3.44 -2.65,-3.88 0.3,-0.09 1.27,1 1.86,1.89 0.86,1.16 1.24,2.13 0.87,2.03 z m -1.56,-1.49 c 0.74,1.14 1.06,2.09 0.65,2 -0.57,-0.17 -3,-3.53 -2.54,-3.92 0.41,-0.06 1.41,1.1 1.97,1.96 z m -1.47,-2.84 c -0.49,0 -3.22,-3.37 -3,-3.71 0.25,-0.06 1.23,0.91 2,1.82 0.77,0.91 1.34,1.91 1.08,1.93 z m -1.69,-1.46 c 0.77,1 1.19,1.89 0.89,1.88 -0.51,0 -3.11,-3.36 -2.9,-3.73 v 0 c 0.4,-0.03 1.39,0.97 2.09,1.89 z m -1.71,-2.68 c -0.4,0 -3.4,-3.22 -3.24,-3.5 a 7,7 0 0 1 2.14,1.79 c 0.87,0.92 1.43,1.75 1.18,1.75 z m -1.75,-1.39 c 0.85,1 1.34,1.77 1.07,1.76 -0.52,0 -3.39,-3.28 -3.14,-3.55 0.34,0.01 1.38,0.96 2.15,1.83 z m -0.71,0.3 c 0.81,1 1.26,1.78 1,1.75 -0.52,-0.06 -3.24,-3.27 -3,-3.57 v 0 c 0.32,0.01 1.34,0.98 2.08,1.86 z m -0.84,0.24 c 0.78,1 1.16,1.78 0.83,1.72 -0.61,-0.1 -3.18,-3.3 -2.89,-3.6 v 0 c 0.43,0.02 1.44,1.02 2.14,1.92 z m -1,0.16 c 0.73,1 1.06,1.78 0.69,1.71 -0.66,-0.14 -3.07,-3.36 -2.72,-3.63 v 0 c 0.51,0.06 1.49,1.08 2.15,1.96 z m -1.09,0.1 c 0.68,1 0.94,1.77 0.56,1.68 -0.7,-0.18 -3,-3.4 -2.55,-3.64 v 0 c 0.55,0.08 1.49,1.11 2.11,2 z m -1.21,0 c 0.63,1 0.82,1.75 0.41,1.64 -0.74,-0.21 -2.81,-3.44 -2.34,-3.63 h 0.05 c 0.57,0.14 1.5,1.27 2,2.06 z m 1.05,4.16 c 0.51,1.06 0.53,1.83 0,1.68 -0.88,-0.26 -2.51,-3.42 -1.95,-3.79 h 0.11 c 0.72,0.15 1.56,1.35 1.96,2.18 z m -1.69,-0.14 c 0.45,1 0.39,1.79 -0.12,1.63 -0.93,-0.3 -2.37,-3.45 -1.73,-3.78 h 0.13 c 0.73,0.19 1.51,1.43 1.84,2.22 z m -1.69,-0.14 c 0.4,1.12 0.22,1.84 -0.39,1.53 -1.11,-0.59 -2,-3.47 -1.39,-3.71 h 0.1 c 0.68,0.18 1.39,1.38 1.68,2.18 z m -2.36,1.68 a 0.37,0.37 0 0 1 0.18,0 c 0.76,0.22 1.38,1.52 1.57,2.33 0.27,1.23 -0.18,1.94 -0.92,1.43 -1.23,-0.86 -1.65,-3.59 -0.83,-3.78 z m 1.06,4.39 h 0.21 c 0.85,0.24 1.44,1.6 1.58,2.44 0.2,1.29 -0.37,2 -1.16,1.48 -1.22,-0.84 -1.68,-3.73 -0.63,-3.94 z m 1.09,-4 h 0.17 c 0.72,0.19 1.41,1.49 1.64,2.31 0.34,1.17 0,1.92 -0.62,1.58 -1.1,-0.59 -2.04,-3.64 -1.19,-3.91 z m 1.35,4.45 a 0.6,0.6 0 0 1 0.19,0 c 0.8,0.2 1.46,1.56 1.64,2.42 0.29,1.29 -0.19,2.06 -1,1.55 -1.16,-0.8 -1.8,-3.73 -0.83,-3.99 z m 0.67,-4.15 a 0.44,0.44 0 0 1 0.16,0 c 0.68,0.16 1.42,1.46 1.71,2.29 0.41,1.17 0.19,1.95 -0.45,1.64 -1.06,-0.56 -2.18,-3.63 -1.42,-3.95 z m 1.7,4.47 h 0.09 c 0.76,0.17 1.47,1.53 1.7,2.39 0.36,1.31 0,2.12 -0.79,1.63 -1.19,-0.78 -1.99,-3.94 -1,-4.04 z m 1.28,4.69 a 0.65,0.65 0 0 1 0.2,0 c 0.83,0.19 1.49,1.59 1.68,2.49 0.27,1.34 -0.23,2.17 -1,1.67 -1.24,-0.81 -1.88,-3.87 -0.88,-4.18 z m 0.77,-4.44 a 0.41,0.41 0 0 1 0.16,0 c 0.72,0.14 1.47,1.48 1.74,2.35 0.4,1.23 0.16,2.07 -0.49,1.77 -1.11,-0.55 -2.21,-3.77 -1.41,-4.14 z m 2,0.09 h 0.08 c 0.67,0.1 1.46,1.44 1.78,2.31 0.46,1.23 0.3,2.11 -0.32,1.83 -1.07,-0.51 -2.35,-3.94 -1.5,-4.16 z m 1.81,0 h 0.07 c 0.62,0.07 1.44,1.39 1.8,2.27 0.51,1.23 0.44,2.13 -0.15,1.89 -1.01,-0.46 -2.43,-3.9 -1.68,-4.16 z m 2,4.71 h 0.08 c 0.67,0.07 1.43,1.44 1.74,2.34 0.43,1.28 0.25,2.2 -0.36,2 -1.04,-0.51 -2.25,-4.07 -1.39,-4.34 z m 1.82,-0.1 h 0.07 c 0.61,0 1.4,1.38 1.74,2.28 0.47,1.27 0.38,2.23 -0.19,2 -0.96,-0.4 -2.31,-3.95 -1.55,-4.28 z m 1.91,4.86 h 0.08 c 0.66,0 1.38,1.42 1.66,2.35 0.41,1.4 0.17,2.4 -0.5,2 -1.02,-0.62 -2.02,-4 -1.17,-4.35 z m 1.85,-0.26 c 0.59,0 1.32,1.35 1.63,2.28 0.46,1.39 0.31,2.43 -0.31,2.08 -0.83,-0.49 -2.15,-4.05 -1.25,-4.36 z m 1.55,-0.36 c 0.52,-0.06 1.26,1.28 1.6,2.21 0.5,1.39 0.43,2.45 -0.14,2.15 -0.76,-0.45 -2.16,-3.98 -1.39,-4.39 z m 1.33,-0.48 c 0.41,-0.09 1.12,1 1.55,2.14 0.53,1.38 0.55,2.47 0,2.2 -0.64,-0.39 -2.12,-3.89 -1.48,-4.34 z m 1.1,-0.6 c 0.34,-0.12 1,1 1.49,2.07 0.56,1.37 0.66,2.48 0.21,2.25 -0.57,-0.27 -2.1,-3.82 -1.63,-4.27 z m 0.89,5.51 c 0.48,-0.11 1.13,1.24 1.42,2.18 0.44,1.41 0.37,2.53 -0.14,2.27 -0.67,-0.39 -1.9,-3.98 -1.21,-4.45 z m 1.19,-0.64 c 0.39,-0.16 1,1.16 1.35,2.1 0.46,1.4 0.49,2.55 0,2.32 -0.55,-0.33 -1.83,-3.88 -1.28,-4.42 z m 0.57,-1.29 c -0.54,-0.27 -2.13,-3.73 -1.79,-4.29 0.27,-0.16 1,0.91 1.41,2 0.66,1.34 0.85,2.48 0.45,2.29 z m -1.42,-5.53 c -0.37,0 -2.42,-3.46 -2.21,-4.11 0.18,-0.17 0.91,0.82 1.47,1.86 0.56,1.04 1,2.25 0.74,2.25 z m -1.23,-1.42 c 0.62,1.2 0.92,2.28 0.6,2.23 -0.32,-0.05 -2.49,-3.58 -2.15,-4.17 0.27,-0.2 1.07,0.98 1.55,1.89 z m -0.73,0.73 c 0.62,1.23 0.83,2.28 0.45,2.19 -0.53,-0.12 -2.54,-3.69 -2.06,-4.2 0.32,-0.17 1.08,0.9 1.61,1.96 z m -1.19,-3.14 c -0.45,-0.09 -2.74,-3.46 -2.45,-4 0.24,-0.12 1.06,0.87 1.68,1.88 0.72,1.1 1.08,2.13 0.77,2.07 z m -1.43,-1.47 c 0.7,1.17 1,2.19 0.62,2.1 -0.38,-0.09 -2.77,-3.57 -2.35,-4 0.32,-0.21 1.21,0.97 1.73,1.85 z m -1.42,-3 c -0.42,-0.09 -3,-3.37 -2.74,-3.83 0.22,-0.11 1.14,0.87 1.82,1.82 0.68,0.95 1.24,2.03 0.92,1.96 z m -3.9,-6.76 c 0.88,1 1.47,2 1.19,1.9 -0.28,-0.1 -3.13,-3.16 -3.13,-3.62 0.2,-0.11 1.17,0.78 1.94,1.67 z m -1.67,-2.26 v 0 a 6.63,6.63 0 0 1 1.82,1.62 c 0.73,0.79 1.44,1.75 1.33,1.9 a 13.71,13.71 0 0 1 -3.15,-3.57 z m 1.32,2.85 c 0.82,1 1.34,1.87 1.13,1.9 -0.42,0.07 -3.22,-3.27 -3.07,-3.65 0.21,-0.13 1.19,0.81 1.94,1.7 z m -5.17,-6.53 c 0.22,-0.06 1.45,1 2,1.52 0.78,0.75 1.56,1.63 1.46,1.76 a 16.69,16.69 0 0 1 -3.46,-3.28 z m 1.83,2.09 a 5.68,5.68 0 0 1 1.39,1.75 c -0.22,0.15 -3.45,-3 -3.42,-3.35 0.15,-0.13 1.19,0.73 2.03,1.56 z m -0.3,0.5 c 0.71,0.73 1.39,1.57 1.31,1.75 -0.29,0.12 -3.46,-3.11 -3.36,-3.42 a 7,7 0 0 1 2.1,1.63 z m -3.57,-4.59 a 7.07,7.07 0 0 1 1.6,1.59 c -0.4,0.1 -3.71,-3 -3.72,-3 a 9.29,9.29 0 0 1 2.12,1.41 z m -2.07,-1.88 a 9.64,9.64 0 0 1 2.07,1.36 8.27,8.27 0 0 1 1.62,1.52 c -0.27,0.2 -3.68,-2.84 -3.69,-2.89 z m 1.95,2.34 c 0.75,0.64 1.55,1.42 1.53,1.61 a 17.94,17.94 0 0 1 -3.68,-3.12 10,10 0 0 1 2.15,1.5 z m -0.24,0.41 c 0.74,0.66 1.5,1.45 1.45,1.62 a 16.7,16.7 0 0 1 -3.62,-3.2 9.11,9.11 0 0 1 2.15,1.57 z m -0.36,0.36 c 0.73,0.67 1.46,1.47 1.37,1.63 a 15.85,15.85 0 0 1 -3.54,-3.27 8.54,8.54 0 0 1 2.17,1.63 z m -0.47,0.3 c 1,1 1.47,1.65 1.24,1.63 -0.41,0 -3.56,-3.11 -3.4,-3.32 a 8.56,8.56 0 0 1 2.16,1.68 z m -0.58,0.25 c 0.95,1 1.39,1.66 1.14,1.62 a 12.92,12.92 0 0 1 -3.29,-3.4 v 0 a 8.26,8.26 0 0 1 2.15,1.77 z m -0.68,0.19 c 0.88,0.95 1.23,1.58 1.06,1.62 -0.37,0.08 -3.25,-3 -3.18,-3.39 v 0 a 8,8 0 0 1 2.12,1.8 z m -0.79,0.14 c 0.83,0.95 1.14,1.58 0.94,1.6 -0.42,0 -3.16,-3 -3,-3.41 v 0 a 7.77,7.77 0 0 1 2.06,1.8 z m -0.33,4 c 0.58,1 0.7,1.73 0.26,1.6 -0.78,-0.24 -2.66,-3.46 -2.12,-3.62 h 0.05 c 0.48,0.13 1.36,1.27 1.81,2.05 z m -1.43,-0.11 c 0.51,1 0.56,1.7 0.1,1.55 -0.94,-0.32 -2.33,-3.3 -1.93,-3.58 h 0.1 c 0.51,0.13 1.35,1.27 1.73,2.03 z m -0.65,-2.34 c -0.57,0 -2.7,-3 -2.43,-3.39 h 0.07 a 6.24,6.24 0 0 1 1.82,1.9 c 0.58,0.83 0.81,1.53 0.54,1.51 z m -0.9,2.14 c 0.44,1 0.41,1.67 -0.06,1.5 -1,-0.35 -2.14,-3.3 -1.68,-3.54 h 0.12 c 0.53,0.15 1.28,1.29 1.62,2.06 z m -1.64,-0.27 c 0.36,1 0.26,1.63 -0.24,1.44 -0.87,-0.34 -2,-3.25 -1.41,-3.49 h 0.13 c 0.55,0.18 1.23,1.31 1.52,2.07 z m -0.51,3.7 c 0.24,1.08 -0.11,1.74 -0.75,1.38 -1.16,-0.66 -1.61,-3.43 -0.86,-3.59 h 0.17 c 0.7,0.24 1.27,1.47 1.44,2.23 z m -1.45,3.69 c 0.11,1.28 -0.62,1.88 -1.42,1.17 -1.16,-1 -1.09,-3.45 -0.16,-3.54 h 0.21 c 0.82,0.32 1.3,1.61 1.37,2.39 z m -0.76,15.74 h 0.16 a 2.65,2.65 0 0 1 1.49,2.8 c -0.18,1.62 -1.66,2.15 -2.64,0.94 -1.17,-1.4 -0.48,-3.91 0.99,-3.72 z m -0.68,-1.09 c -1.13,-1.4 -0.61,-3.85 0.78,-3.69 h 0.15 a 2.7,2.7 0 0 1 1.47,2.71 c -0.1,1.64 -1.45,2.17 -2.4,1 z m 3,-12.09 a 0.89,0.89 0 0 1 0.23,0 c 0.9,0.28 1.42,1.61 1.5,2.47 0.13,1.35 -0.62,2 -1.47,1.29 -1.15,-0.96 -1.32,-3.6 -0.25,-3.74 z m 0.57,4.52 a 1.1,1.1 0 0 1 0.25,0 c 1,0.3 1.47,1.69 1.51,2.58 0.06,1.39 -0.82,2.07 -1.71,1.31 -1.22,-1.01 -1.26,-3.74 -0.04,-3.89 z m 2.16,7.39 c 0,1.54 -1.12,2.17 -2.08,1.2 -1.26,-1.27 -1,-4 0.41,-3.9 h 0.13 c 1.08,0.37 1.55,1.8 1.55,2.72 z m -1.52,2.16 h 0.15 c 1.15,0.35 1.59,1.83 1.54,2.77 -0.1,1.65 -1.47,2.24 -2.44,1.07 -1.16,-1.39 -0.66,-3.96 0.75,-3.84 z m 2.21,-8.91 a 0.91,0.91 0 0 1 0.23,0 c 0.94,0.26 1.49,1.65 1.58,2.55 0.14,1.41 -0.64,2.14 -1.52,1.41 -1.19,-1 -1.4,-3.78 -0.27,-3.96 z m 0.74,4.74 h 0.14 c 1,0.28 1.53,1.71 1.58,2.64 0.07,1.56 -0.93,2.25 -1.89,1.32 -1.21,-1.22 -1.1,-4 0.22,-3.96 z m 2,-4.24 a 0.79,0.79 0 0 1 0.22,0 c 0.89,0.23 1.49,1.61 1.63,2.52 0.21,1.34 -0.39,2.12 -1.2,1.59 -1.29,-0.83 -1.77,-3.86 -0.67,-4.11 z m 0.87,4.79 a 1,1 0 0 1 0.25,0 c 1,0.23 1.52,1.66 1.61,2.6 0.15,1.47 -0.65,2.25 -1.55,1.53 -1.27,-1 -1.48,-3.9 -0.33,-4.13 z m 0.77,4.92 h 0.13 c 1,0.26 1.56,1.72 1.6,2.68 0.06,1.61 -1,2.37 -1.91,1.44 -1.27,-1.22 -1.15,-4.11 0.16,-4.12 z m 0.41,5.05 h 0.14 c 1.1,0.26 1.58,1.76 1.57,2.74 0,1.63 -1.16,2.4 -2.12,1.44 -1.3,-1.24 -1.02,-4.18 0.41,-4.18 z m 2.58,-4.61 h 0.13 c 1,0.21 1.52,1.67 1.6,2.63 0.13,1.51 -0.68,2.36 -1.57,1.65 -1.35,-1.04 -1.46,-4.21 -0.18,-4.28 z m -0.47,-0.78 c -1.29,-1 -1.58,-4.11 -0.4,-4.19 h 0.12 c 0.91,0.2 1.5,1.62 1.64,2.57 0.19,1.47 -0.47,2.31 -1.38,1.62 z m 0.83,-8.77 h 0.1 c 0.78,0.14 1.48,1.54 1.71,2.44 0.34,1.35 -0.07,2.22 -0.83,1.75 -1.24,-0.75 -2,-4.04 -1,-4.19 z m 2.19,0.13 h 0.09 c 0.73,0.1 1.46,1.48 1.73,2.38 0.4,1.37 0.08,2.27 -0.64,1.83 -1.19,-0.69 -2.11,-4 -1.2,-4.21 z m 1.55,4.87 h 0.1 c 0.8,0.11 1.46,1.5 1.68,2.46 0.31,1.39 -0.11,2.33 -0.86,1.88 -1.24,-0.74 -1.96,-4.14 -0.94,-4.34 z m 1.28,5 h 0.1 c 0.85,0.11 1.45,1.54 1.61,2.52 0.25,1.53 -0.36,2.47 -1.18,1.84 -1.24,-0.95 -1.63,-4.16 -0.55,-4.36 z m 0.92,-5 h 0.12 c 0.72,0.07 1.42,1.48 1.67,2.41 0.37,1.39 0,2.36 -0.68,1.95 -1.2,-0.67 -2.05,-4.1 -1.13,-4.35 z m 1.45,5 h 0.1 c 0.77,0.07 1.39,1.48 1.59,2.46 0.28,1.43 -0.16,2.42 -0.88,2 -1.2,-0.68 -1.84,-4.2 -0.83,-4.45 z m 1.25,5.1 c 0.83,0.07 1.38,1.51 1.51,2.51 0.2,1.55 -0.41,2.56 -1.19,2 -1.09,-0.86 -1.58,-4.35 -0.34,-4.5 z m 0.9,-5.21 h 0.09 c 0.69,0 1.34,1.44 1.56,2.4 0.33,1.42 0,2.45 -0.69,2.07 -1.12,-0.63 -1.87,-4.1 -0.98,-4.46 z m 2,-0.28 c 0.63,0 1.28,1.38 1.53,2.33 0.36,1.42 0.11,2.49 -0.51,2.14 -0.93,-0.49 -2.02,-4.13 -1.04,-4.46 z m 1.68,-0.39 c 0.55,-0.06 1.2,1.31 1.48,2.26 0.4,1.42 0.24,2.51 -0.32,2.21 -0.85,-0.43 -2.02,-4.05 -1.18,-4.43 z m 1.53,5.04 c 0.58,-0.07 1.15,1.3 1.36,2.3 0.31,1.44 0.06,2.56 -0.5,2.26 -0.83,-0.42 -1.77,-4.11 -0.86,-4.56 z m 1.54,-0.55 c 0.49,-0.12 1.06,1.25 1.28,2.22 0.34,1.43 0.19,2.59 -0.31,2.33 -0.74,-0.36 -1.73,-4 -0.97,-4.52 z m 1.27,-0.69 c 0.4,-0.16 1,1.18 1.2,2.14 0.37,1.43 0.3,2.61 -0.13,2.39 -0.64,-0.29 -1.67,-3.92 -1.07,-4.5 z m 0.46,-3.72 c 0.48,1.39 0.59,2.56 0.21,2.38 -0.55,-0.27 -1.88,-3.79 -1.48,-4.41 0.31,-0.14 0.88,0.99 1.31,2.06 z m -1.2,-6.77 c 0.6,1.29 1,2.49 0.7,2.37 a 11.66,11.66 0 0 1 -1.92,-4.19 c 0.11,-0.2 0.72,0.79 1.22,1.85 z m -0.27,1 c 0.59,1.31 0.87,2.49 0.54,2.34 -0.33,-0.15 -2.03,-3.61 -1.86,-4.19 0.2,-0.21 0.9,0.97 1.32,1.9 z m -2.14,-5.57 c 0.69,1.23 1.12,2.4 0.84,2.28 a 12.39,12.39 0 0 1 -2.19,-3.98 c 0.08,-0.22 0.78,0.75 1.35,1.75 z m -4.19,-7 c 0.13,-0.08 0.85,0.8 1.44,1.66 0.59,0.86 1.28,2.08 1.14,2.18 a 15.09,15.09 0 0 1 -2.59,-3.81 z m -0.09,0.86 c 0.2,0 0.93,0.85 1.53,1.75 0.73,1.11 1.23,2.16 1,2.17 -0.23,0.01 -2.59,-3.27 -2.56,-3.89 z m 1.3,2.61 c 0.73,1.13 1.16,2.17 0.9,2.14 -0.26,-0.03 -2.67,-3.39 -2.52,-3.95 0.18,-0.09 0.98,0.88 1.62,1.88 z m -4.46,-7.46 v 0 c 0.16,-0.06 1,0.78 1.61,1.6 a 6.6,6.6 0 0 1 1.29,2 c -0.23,0.19 -2.81,-3.01 -2.9,-3.53 z m 2.8,4.45 c -0.33,0.06 -2.89,-3.21 -2.88,-3.69 v 0 c 0.21,0 1,0.86 1.68,1.69 0.68,0.83 1.3,1.9 1.2,2.07 z m -1.39,-3.81 a 9.18,9.18 0 0 1 1.38,2 v 0 a 20.94,20.94 0 0 1 -2.86,-3.52 v 0 c 0.16,0.04 1.16,1.17 1.48,1.59 z m 0,2.54 c 0.79,1.06 1.31,2.07 1,2 -0.31,-0.07 -2.92,-3.26 -2.8,-3.77 0.2,-0.03 1.09,0.88 1.8,1.88 z m -1.79,-3.58 a 15.22,15.22 0 0 1 -3.18,-3.31 v 0 a 6.47,6.47 0 0 1 1.76,1.53 6.49,6.49 0 0 1 1.42,1.85 z m -3.27,-4.13 v 0 a 7.77,7.77 0 0 1 1.67,1.45 8.29,8.29 0 0 1 1.51,1.89 17.33,17.33 0 0 1 -3.18,-3.27 z m 1.32,0.54 a 10.17,10.17 0 0 1 1.56,1.87 v 0 a 25.75,25.75 0 0 1 -3.14,-3.13 v 0 a 7.56,7.56 0 0 1 1.58,1.33 z m -5.1,-3.38 v 0 a 9.48,9.48 0 0 1 1.89,1.46 c 0.79,0.73 1.59,1.6 1.53,1.75 a 18.64,18.64 0 0 1 -3.42,-3.14 z m -0.08,-0.6 v 0 a 9.46,9.46 0 0 1 1.83,1.38 7.73,7.73 0 0 1 1.6,1.73 20.93,20.93 0 0 1 -3.43,-3.04 z m 3.2,2.31 a 22.76,22.76 0 0 1 -3.42,-3 v 0 a 8.06,8.06 0 0 1 1.76,1.28 9,9 0 0 1 1.66,1.79 z m -2.13,-2.52 a 11.48,11.48 0 0 1 1.71,1.68 v 0 a 31.35,31.35 0 0 1 -3.34,-2.85 v 0 a 7.41,7.41 0 0 1 1.63,1.24 z m -1.47,-0.08 v 0 a 25.42,25.42 0 0 1 -3.7,-2.85 v 0 a 11.36,11.36 0 0 1 2,1.29 9,9 0 0 1 1.7,1.56 z m -0.21,-0.62 a 25.71,25.71 0 0 1 -3.68,-2.72 v 0 a 10.21,10.21 0 0 1 1.89,1.19 8.34,8.34 0 0 1 1.75,1.53 z m -4,-3.31 a 15.45,15.45 0 0 1 3.62,2.61 25.19,25.19 0 0 1 -3.62,-2.59 z m -1.73,0.24 a 7.89,7.89 0 0 1 1.73,1.44 c -0.35,0 -4,-2.75 -4,-2.78 a 11.81,11.81 0 0 1 2.27,1.34 z m -0.09,0.36 a 8.46,8.46 0 0 1 1.67,1.43 v 0 a 28.57,28.57 0 0 1 -3.93,-2.87 12.05,12.05 0 0 1 2.29,1.44 z m -0.18,0.31 a 8.31,8.31 0 0 1 1.61,1.46 v 0 a 28.14,28.14 0 0 1 -3.86,-3 12.48,12.48 0 0 1 2.25,1.54 z m -0.28,0.28 a 7.56,7.56 0 0 1 1.54,1.47 v 0 a 21.87,21.87 0 0 1 -3.77,-3 12,12 0 0 1 2.23,1.53 z m -2.6,-1.35 a 11.48,11.48 0 0 1 2.25,1.58 6.58,6.58 0 0 1 1.45,1.48 c -0.34,0.15 -3.69,-3 -3.7,-3.05 z m -0.4,0.14 a 11,11 0 0 1 2.2,1.63 6.19,6.19 0 0 1 1.37,1.48 c -0.28,0.27 -3.57,-3 -3.58,-3.1 z m -1.62,0.22 a 9.3,9.3 0 0 1 2,1.72 c 0.82,0.87 1.19,1.47 1,1.48 a 12.49,12.49 0 0 1 -3,-3.19 z m -0.67,0 a 9,9 0 0 1 1.93,1.75 c 0.78,0.9 1.07,1.45 0.88,1.45 -0.37,0 -2.95,-2.89 -2.83,-3.19 z m -1.32,6.43 h 0.1 c 0.59,0.2 1.19,1.34 1.4,2.06 0.31,1 0.07,1.66 -0.5,1.33 -0.98,-0.6 -1.6,-3.23 -1,-3.4 z m -1.73,-0.43 a 0.43,0.43 0 0 1 0.16,0 c 0.61,0.22 1.12,1.36 1.27,2.06 0.22,1 -0.11,1.6 -0.69,1.25 -1.03,-0.62 -1.4,-3.18 -0.74,-3.32 z m -1.78,-0.49 a 0.43,0.43 0 0 1 0.16,0 c 0.61,0.24 1,1.36 1.12,2 0.14,1.13 -0.4,1.56 -0.94,1.11 -0.96,-0.74 -1.05,-3.02 -0.34,-3.12 z m -1.79,-0.54 a 0.44,0.44 0 0 1 0.16,0 c 0.61,0.25 0.92,1.34 0.94,2 0,1.1 -0.56,1.49 -1.07,1 -0.92,-0.69 -0.78,-2.94 -0.03,-3.01 z m 0.12,3.6 a 0.63,0.63 0 0 1 0.19,0 c 0.72,0.29 1,1.47 1,2.18 0,1.14 -0.78,1.66 -1.43,1 -0.93,-0.99 -0.61,-3.15 0.24,-3.19 z m 0.07,3.86 h 0.11 a 2.42,2.42 0 0 1 1.1,2.35 c -0.09,1.29 -1.06,1.77 -1.78,0.89 -0.93,-1.1 -0.5,-3.39 0.57,-3.25 z m -2.13,-4.56 h 0.1 c 0.71,0.3 0.93,1.46 0.85,2.14 -0.15,1.26 -1.09,1.55 -1.64,0.81 -0.75,-1 -0.25,-3.11 0.69,-2.96 z m -0.36,3.74 h 0.11 c 0.82,0.35 1,1.58 0.91,2.31 -0.19,1.25 -1.22,1.69 -1.9,0.81 -0.83,-1.09 -0.22,-3.32 0.88,-3.13 z m -0.52,4 h 0.13 a 2.23,2.23 0 0 1 1,2.46 c -0.26,1.38 -1.54,1.76 -2.24,0.67 -0.82,-1.26 -0.06,-3.39 1.11,-3.18 z m -0.66,4.18 h 0.15 a 2.28,2.28 0 0 1 1,2.6 c -0.33,1.46 -1.73,1.84 -2.49,0.66 -0.85,-1.38 0.01,-3.57 1.34,-3.31 z m -2.12,1.49 c -0.46,1.5 -2,1.76 -2.67,0.43 -0.67,-1.33 0.34,-3.42 1.77,-3 a 2.15,2.15 0 0 1 0.9,2.57 z m -1.26,-25.11 c 0.29,0.19 0,0.87 -0.34,1.28 -0.6,0.77 -1.32,0.91 -1.39,0.42 -0.01,-0.67 1.22,-1.91 1.77,-1.73 z m -1,-0.46 c 0.3,0.2 -0.24,0.9 -0.53,1.2 -0.73,0.72 -1.49,0.81 -1.49,0.35 0.06,-0.64 1.53,-1.78 2.09,-1.58 z m -1,-0.48 c 0.28,0.2 -0.37,0.85 -0.71,1.12 -0.85,0.66 -1.64,0.72 -1.59,0.29 0.2,-0.68 1.92,-1.63 2.42,-1.44 z m -0.92,-0.49 c 0.27,0.2 -0.49,0.79 -0.89,1 -1,0.6 -1.79,0.63 -1.68,0.21 0.28,-0.6 2.2,-1.44 2.69,-1.24 z m -0.88,-0.49 c 0.25,0.19 -0.62,0.72 -1.07,0.94 -1.08,0.54 -1.92,0.54 -1.75,0.15 a 3.88,3.88 0 0 1 2.94,-1.12 z m -0.84,-0.51 c 0.24,0.21 -0.85,0.71 -1.24,0.86 -1.16,0.46 -2,0.45 -1.86,0.14 0.3,-0.57 2.72,-1.25 3.22,-1.03 z m -0.8,-0.51 c 0.21,0.21 -1,0.64 -1.41,0.78 -1.27,0.39 -2.08,0.36 -1.93,0.06 0.38,-0.55 2.95,-1.11 3.46,-0.87 z m -0.75,-0.51 c 0.19,0.2 -1.11,0.57 -1.57,0.68 -1.36,0.33 -2.19,0.27 -2,0 0.47,-0.52 3.19,-0.95 3.69,-0.71 z m -1.86,2.34 c 0.33,0.27 -0.63,0.86 -1.14,1.1 -1.23,0.59 -2.19,0.55 -2,0.08 0.3,-0.68 2.59,-1.53 3.26,-1.21 z m -3.46,1.65 c 0.4,0.31 -0.37,1 -1,1.34 -1.3,0.71 -2.43,0.61 -2.21,0 a 3.49,3.49 0 0 1 3.33,-1.37 z m -2.67,-1.75 c 0.35,0.32 -0.65,0.89 -1.37,1.17 -1.43,0.57 -2.51,0.46 -2.3,0 0.42,-0.79 3.11,-1.6 3.79,-1.2 z m -1.2,-0.87 c 0.31,0.31 -0.77,0.83 -1.53,1.08 -1.51,0.5 -2.59,0.37 -2.32,-0.1 0.49,-0.71 3.28,-1.42 3.97,-1.01 z m -1.1,-0.87 c 0.27,0.31 -0.9,0.77 -1.7,1 -1.39,0.38 -2.55,0.33 -2.36,-0.1 0.42,-0.68 3.48,-1.36 4.18,-0.93 z m -1,-0.86 c 0.23,0.3 -1,0.71 -1.84,0.9 -1.47,0.34 -2.62,0.27 -2.36,-0.14 0.49,-0.65 3.67,-1.23 4.31,-0.79 z m -2.88,0 c -1.51,0.28 -2.659999,0.18 -2.35,-0.21 0.47,-0.58 3.74,-1 4.34,-0.61 0.32,0.26 -1.3,0.65 -1.88,0.74 z m 1.21,-1.66 c 0.16,0.32 -1.52,0.65 -2.12,0.73 -1.48,0.22 -2.559999,0.13 -2.369999,-0.2 0.44,-0.6 4.049999,-1.03 4.599999,-0.59 z m -0.66,-0.8 c 0.12,0.29 -1.62,0.56 -2.24,0.63 -1.509999,0.17 -2.589999,0.06 -2.329999,-0.24 0.52,-0.58 4.199999,-0.89 4.639999,-0.45 z m -4.629999,-4.94 a 13.79,13.79 0 0 1 4.609999,0.25 v 0 a 20,20 0 0 1 -2.78,0 5.8,5.8 0 0 1 -1.839999,-0.22 z m 4.159999,0.64 v 0 a 15.92,15.92 0 0 1 -2.759999,0 5.91,5.91 0 0 1 -2,-0.24 c 0.17,-0.23 4.479999,-0.08 4.759999,0.24 z m -0.33,0.43 v 0 a 14.2,14.2 0 0 1 -2.729999,0.11 6.5,6.5 0 0 1 -2,-0.23 c -0.01,-0.31 4.349999,-0.22 4.729999,0.12 z m -4.929999,-0.66 v 0 a 15.11,15.11 0 0 1 -2.77,0.27 5.42,5.42 0 0 1 -1.9,-0.12 c 0.16,-0.31 4.47,-0.47 4.67,-0.15 z m -0.39,0.52 v 0 a 12.61,12.61 0 0 1 -2.74,0.34 5.75,5.75 0 0 1 -2,-0.11 c 0.07,-0.37 4.39,-0.6 4.74,-0.23 z m -0.24,0.61 c -0.18,0.27 -2.65,0.41 -2.67,0.42 -1.37,0.08 -2.22,0 -2.06,-0.17 0.16,-0.17 4.64,-0.75 4.73,-0.25 z m -0.07,0.65 c -0.1,0.26 -1.91,0.45 -2.61,0.5 -1.38,0.11 -2.26,0.05 -2.14,-0.15 0.12,-0.2 4.52,-0.89 4.75,-0.35 z m -7.29,3.13 c -1.41,0.27 -2.43,0.22 -2.27,-0.11 0.31,-0.64 4.25,-1.33 4.64,-0.81 0.04,0.33 -1.43,0.73 -2.37,0.92 z m 2.32,-4.14 v 0 a 10.63,10.63 0 0 1 -2.72,0.56 c -0.54,0.06 -1.81,0.18 -1.93,0 0.12,-0.42 4.34,-0.96 4.65,-0.57 z m -0.28,0.71 a 8.26,8.26 0 0 1 -2.65,0.64 c -1.35,0.18 -2.18,0.15 -2,-0.06 0.18,-0.21 4.58,-1.15 4.65,-0.59 z m -2.42,0.72 c 0.92,-0.13 2.25,-0.21 2.34,0 -0.1,0.3 -1.89,0.63 -2.57,0.73 -1.35,0.19 -2.23,0.17 -2.11,-0.07 a 4.91,4.91 0 0 1 2.34,-0.67 z m -2.46,2.84 c 0.07,0.38 -1.37,0.9 -2.29,1.14 -1.49,0.38 -2.53,0.34 -2.23,-0.1 0.5,-0.75 4.15,-1.59 4.52,-1.05 z m -2.76,0 c -1.39,0.32 -2.35,0.31 -2.15,0 0.4,-0.69 4.29,-1.55 4.57,-1 -0.03,0.3 -1.49,0.78 -2.42,1 z m 2.39,-2.89 v 0 c -0.17,0.32 -2,0.73 -2.62,0.87 -1.31,0.26 -2.14,0.27 -2,0 0.42,-0.47 4.45,-1.29 4.62,-0.87 z m -0.1,0.85 v 0 c -0.08,0.32 -1.59,0.75 -2.52,0.95 -1.32,0.29 -2.2,0.3 -2.08,0 0.27,-0.51 4.3,-1.41 4.6,-0.95 z m -4.64,3.42 c 0.08,0.44 -1.32,1.06 -2.23,1.36 -1.43,0.47 -2.49,0.45 -2.21,0 0.49,-0.87 4.02,-1.97 4.44,-1.36 z m -2.74,0.11 c -1.36,0.42 -2.32,0.44 -2.12,0.05 0.38,-0.77 4.19,-1.88 4.48,-1.31 0,0.4 -1.45,0.99 -2.36,1.26 z m 2.33,-3.31 v 0 a 7.13,7.13 0 0 1 -2.57,1.08 c -1.29,0.35 -2.09,0.41 -1.91,0.14 0.38,-0.53 4.31,-1.65 4.48,-1.22 z m -0.12,0.95 v 0.05 c -0.08,0.35 -1.56,0.91 -2.47,1.17 -1.27,0.36 -2.15,0.42 -2,0.12 0.23,-0.6 4.18,-1.82 4.47,-1.34 z m -4.48,4 c 0.1,0.46 -1.19,1.2 -2.14,1.58 -1.4,0.55 -2.44,0.57 -2.19,0 0.37,-0.84 3.86,-2.3 4.33,-1.6 z m -0.41,-1.26 c 0,0.44 -1.4,1.13 -2.28,1.47 -1.31,0.5 -2.27,0.55 -2.09,0.13 0.36,-0.87 4.07,-2.23 4.37,-1.6 z m -0.16,-1.2 v 0 c -0.08,0.4 -1.52,1.06 -2.4,1.38 -1.25,0.45 -2.1,0.54 -2,0.22 0.27,-0.69 4.11,-2.13 4.4,-1.61 z m -4.31,4.52 c 0.12,0.5 -1.13,1.34 -2,1.77 -1.36,0.65 -2.39,0.7 -2.16,0.1 0.31,-0.94 3.66,-2.67 4.16,-1.88 z m -0.47,-1.42 v 0.05 c 0,0.45 -1.28,1.26 -2.2,1.68 -1.27,0.58 -2.2,0.67 -2,0.2 0.3,-0.83 3.81,-2.48 4.2,-1.93 z m -0.14,-1.25 v 0.05 c -0.08,0.44 -1.47,1.21 -2.33,1.59 -1.18,0.52 -2,0.65 -1.92,0.3 0.25,-0.77 3.97,-2.47 4.25,-1.94 z m -4.11,5 c 0.13,0.54 -1.06,1.48 -1.94,2 -1.32,0.73 -2.33,0.81 -2.12,0.15 0.32,-0.98 3.54,-2.94 4.06,-2.11 z m -0.5,-1.51 v 0.06 c 0,0.49 -1.21,1.39 -2.1,1.87 -1.23,0.67 -2.13,0.8 -2,0.29 0.33,-0.9 3.7,-2.75 4.1,-2.18 z m -4.05,4.25 c 0.14,0.58 -1,1.61 -1.84,2.16 -1.26,0.82 -2.25,0.93 -2.06,0.22 0.28,-1.07 3.36,-3.24 3.9,-2.38 z m -0.54,-1.6 v 0.06 c 0,0.53 -1.14,1.53 -2,2.06 -1.18,0.75 -2.05,0.92 -1.91,0.37 0.35,-1.06 3.5,-3.11 3.91,-2.49 z m -3.87,4.53 0.05,0.07 c 0.16,0.61 -0.91,1.74 -1.72,2.34 -1.18,0.88 -2.16,1 -2,0.29 0.25,-1.21 3.14,-3.33 3.67,-2.7 z m -0.51,-1.61 v 0.06 c 0,0.56 -1.07,1.65 -1.88,2.25 -1.13,0.82 -2,1 -1.84,0.44 0.26,-1.12 3.31,-3.39 3.72,-2.75 z m -3.63,4.9 v 0.07 c 0.18,0.64 -0.83,1.86 -1.59,2.51 -1,0.9 -2,1.12 -2,0.48 0.13,-1.26 3.04,-3.78 3.59,-3.06 z m -3.92,3.58 v 0.07 c 0.19,0.67 -0.73,2 -1.46,2.67 -1,1 -1.84,1.23 -1.85,0.55 0.03,-1.31 2.68,-4.02 3.31,-3.29 z m -2.69,5.81 0.06,0.08 c 0.34,0.75 -0.46,2.15 -1.13,2.92 -1,1.11 -1.93,1.32 -2,0.43 -0.03,-1.55 2.33,-4.21 3.07,-3.43 z m -2,6.24 a 0.61,0.61 0 0 1 0.17,0.15 c 0.49,0.81 -0.16,2.32 -0.78,3.14 -0.9,1.19 -1.92,1.4 -2.1,0.43 -0.33,-1.56 1.67,-4.31 2.66,-3.74 z m -3.68,25.06 c -0.57,-1.87 0.8,-4.45 2.06,-3.89 a 1.17,1.17 0 0 1 0.26,0.17 c 0.87,0.9 0.62,2.62 0.16,3.55 -0.74,1.52 -2.05,1.61 -2.48,0.17 z m 1.85,3.81 a 1,1 0 0 1 1,-0.16 1.17,1.17 0 0 1 0.28,0.17 2.09,2.09 0 0 1 0.27,0.39 c -0.5,-0.15 -1.03,-0.26 -1.55,-0.4 z m 3.67,-1.47 c -0.76,1.51 -2.16,1.59 -2.68,0.14 -0.68,-1.88 0.72,-4.46 2.1,-3.88 a 1.05,1.05 0 0 1 0.29,0.17 c 0.97,0.93 0.76,2.63 0.29,3.57 z m -0.61,-5.09 c -0.46,-2 1.23,-4.31 2.55,-3.51 l 0.14,0.1 c 1,0.9 0.67,2.58 0.15,3.49 -0.9,1.56 -2.46,1.51 -2.84,-0.08 z m 6.16,2.6 c -0.9,1.56 -2.56,1.51 -3,-0.09 -0.57,-2 1.15,-4.32 2.58,-3.52 l 0.16,0.1 c 1.03,0.91 0.78,2.6 0.26,3.51 z m 3.58,2.52 c -1,1.69 -2.81,1.51 -3.25,-0.3 -0.44,-1.81 1.19,-4.23 2.85,-3.21 a 2.83,2.83 0 0 1 0.4,3.51 z m 3.84,2.53 c -1,1.690004 -2.92,1.520004 -3.42,-0.3 -0.56,-2 1.14,-4.1 2.72,-3.32 a 0.81,0.81 0 0 1 0.18,0.1 2.77,2.77 0 0 1 0.52,3.52 z m 0.68,-26 c -1.21,1.36 -2.87,1.25 -3,-0.19 -0.17,-1.69 2,-3.86 3.42,-2.87 0.85,0.79 0.27,2.25 -0.42,3.02 z m 2,-12.42 c -1.38,1.16 -2.87,1 -2.7,-0.25 0.19,-1.49 2.62,-3.33 3.7,-2.42 0.57,0.7 -0.26,1.96 -1.04,2.63 z m 1.26,-3.81 c 0.26,-1.4 2.78,-3.1 3.83,-2.23 0.57,0.7 -0.32,1.88 -1.14,2.5 -1.47,1.04 -2.96,0.89 -2.73,-0.31 z m 4.95,2.32 c -1.4,1.11 -3,1 -2.84,-0.26 0.15,-1.43 2.64,-3.19 3.81,-2.31 0.62,0.68 -0.21,1.89 -1.01,2.53 z m 1.2,-3.66 c 0.22,-1.34 2.79,-3 3.91,-2.13 0.61,0.67 -0.27,1.8 -1.1,2.39 -1.49,1 -3.04,0.85 -2.85,-0.3 z m 5.16,2.19 c -1.42,1.08 -3,0.94 -2.94,-0.25 0.12,-1.37 2.64,-3 3.86,-2.21 0.7,0.64 -0.12,1.84 -0.92,2.46 z m 4,-3.26 c -1.46,1 -3,0.87 -2.88,-0.25 0.19,-1.27 2.76,-2.82 3.93,-2 0.64,0.61 -0.23,1.69 -1.05,2.25 z m 1.3,-3.24 c 0.26,-1.18 2.88,-2.59 4,-1.85 0.58,0.59 -0.33,1.58 -1.17,2.1 -1.51,0.91 -3.05,0.78 -2.83,-0.25 z m 2.21,1.77 c 0.16,-1.21 2.7,-2.7 3.88,-2 0.65,0.59 -0.19,1.62 -1,2.16 -1.39,1.01 -3.02,0.89 -2.88,-0.16 z m 2.41,1.63 c 0.23,-1.21 2.59,-2.61 3.77,-1.92 0.71,0.6 -0.06,1.67 -0.83,2.23 -1.45,1.07 -3.15,0.89 -2.94,-0.31 z m 5.57,2.05 c -1.39,1.11 -3.12,1 -3,-0.27 0.12,-1.27 2.41,-2.71 3.65,-2 0.78,0.57 0.09,1.67 -0.65,2.27 z m 3.62,-3.14 c -1.38,1 -3.06,0.86 -2.86,-0.25 0.2,-1.11 2.47,-2.49 3.63,-1.86 0.7,0.55 -0.04,1.56 -0.77,2.11 z m -1.27,-4.49 c 0.21,-1 2.72,-2.29 3.77,-1.68 0.57,0.49 -0.27,1.37 -1.06,1.83 -1.4,0.84 -2.89,0.76 -2.71,-0.15 z m 3.41,46.45 a 2.45,2.45 0 0 1 3.09,-3.09 2.35,2.35 0 0 1 0.999999,3.27 2.18,2.18 0 0 1 -4.089999,-0.18 z m 2.52,6.810004 a 2.46,2.46 0 0 1 3.149999,-3.000004 2.4,2.4 0 0 1 1.08,3.320004 2.25,2.25 0 0 1 -4.229999,-0.32 z m 7.189999,7.36 a 2.32,2.32 0 0 1 -4.33,-0.28 2.47,2.47 0 0 1 3.14,-3 2.42,2.42 0 0 1 1.23,3.28 z m 2,-5.09 a 2.26,2.26 0 0 1 -4.25,-0.26 2.45,2.45 0 0 1 3.08,-3 2.42,2.42 0 0 1 1.12,3.26 z m 4.94,1.82 a 2.26,2.26 0 0 1 -4.25,-0.17 2.45,2.45 0 0 1 3,-3.11 2.42,2.42 0 0 1 1.2,3.28 z m 5,1.69 a 2.25,2.25 0 0 1 -4.15,0.15 2.46,2.46 0 0 1 2.85,-3.39 2.41,2.41 0 0 1 1.21,3.24 z m 1.62,-5.15 a 2.16,2.16 0 0 1 -4,0.17 2.3,2.3 0 1 1 4,-0.17 z m 4.84,1.53 a 2.14,2.14 0 0 1 -4,0.27 c -0.8,-1.69 0.58,-4 2.62,-3.45 a 2.44,2.44 0 0 1 1.29,3.18 z m -2.48,-4.860004 c -0.81,-1.67 0.49,-3.93 2.46,-3.43 a 2.45,2.45 0 0 1 1.38,3.13 2,2 0 0 1 -3.93,0.3 z m 7.29,6.250004 a 2.4,2.4 0 0 1 -0.64,1 l -2,0.49 a 2.07,2.07 0 0 1 -1.27,-1.09 c -0.84,-1.67 0.47,-4 2.5,-3.52 a 2.42,2.42 0 0 1 1.32,3.17 z m 1.21,-5.2 a 2,2 0 0 1 -3.78,0.41 c -0.84,-1.660004 0.37,-4.000004 2.33,-3.510004 a 2.48,2.48 0 0 1 1.36,3.100004 z m -2.67,-4.750004 c -0.83,-1.62 0.28,-3.9 2.16,-3.48 a 2.52,2.52 0 0 1 1.45,3 1.9,1.9 0 0 1 -3.61,0.48 z m 7.16,5.940004 a 1.94,1.94 0 0 1 -3.67,0.53 c -0.87,-1.63 0.25,-4.000004 2.19,-3.590004 a 2.48,2.48 0 0 1 1.48,3.120004 z m -2.53,-4.480004 c -1.06,-1.59 -0.08,-4.13 1.89,-3.75 a 2.54,2.54 0 0 1 1.5,3 1.82,1.82 0 0 1 -3.39,0.76 z m 6.92,5.490004 c -0.44,1.84 -2.38,2.34 -3.36,0.87 -0.98,-1.47 -0.07,-4.190004 1.89,-3.860004 a 2.47,2.47 0 0 1 1.47,3.040004 z m 0.68,-5.250004 c -0.35,1.83 -2.19,2.34 -3.18,0.88 -0.99,-1.46 -0.19,-4.14 1.69,-3.84 a 2.55,2.55 0 0 1 1.49,2.97 z m -1.94,-9.26 c -1.2,-1.46 -0.56,-4.07 1,-3.93 h 0.17 a 2.69,2.69 0 0 1 1.53,2.85 c -0.21,1.69 -1.7,2.29 -2.7,1.08 z m 5.92,10.07 c -0.28,1.85 -2,2.440004 -3,1 -1,-1.44 -0.29,-4.14 1.49,-3.91 1.32,0.4 1.67,1.91 1.52,2.91 z m 0.3,-5.24 c -0.18,1.71 -1.67,2.38 -2.66,1.19 -1.2,-1.45 -0.56,-4.15 1,-4.06 h 0.16 c 1.21,0.35 1.61,1.89 1.51,2.87 z m -2.4,-4 c -1.19,-1.42 -0.69,-4.07 0.74,-4 h 0.16 c 1.16,0.32 1.6,1.83 1.55,2.8 -0.08,1.72 -1.46,2.39 -2.44,1.22 z m 5.87,9.84 c -0.21,1.770004 -1.67,2.500004 -2.65,1.31 -1.12,-1.37 -0.58,-4.3 1.18,-4.15 1.22,0.31 1.59,1.85 1.48,2.86 z m 0.12,-5.27 c -0.12,1.73 -1.49,2.47 -2.45,1.31 -1.13,-1.34 -0.74,-4.25 0.93,-4.1 1.16,0.29 1.59,1.82 1.53,2.81 z m 1.35,-7.49 h 0.14 c 1,0.22 1.54,1.71 1.56,2.69 0,1.65 -1,2.47 -1.91,1.56 -1.23,-1.19 -1.08,-4.17 0.22,-4.23 z m 2,7.92 c 0,1.66 -1.17,2.49 -2.11,1.57 -1.26,-1.24 -0.93,-4.26 0.46,-4.31 h 0.15 c 1.1,0.25 1.55,1.76 1.52,2.76 z m 0,5.28 c -0.15,1.790004 -1.49,2.590004 -2.43,1.440004 -1.09,-1.320004 -0.65,-4.280004 1,-4.210004 1.18,0.22 1.57,1.78 1.49,2.79 z m -0.16,-18.65 c -1.28,-0.78 -1.85,-4.16 -0.73,-4.31 h 0.11 c 0.85,0.15 1.48,1.56 1.66,2.52 0.26,1.38 -0.25,2.28 -1.04,1.79 z m 1.4,15.33 c -1.2,-1.18 -1,-4.23 0.29,-4.35 h 0.14 c 1,0.17 1.47,1.66 1.48,2.67 0.01,1.67 -1.01,2.56 -1.91,1.68 z m 2.52,-9.38 h 0.08 c 0.9,0.12 1.43,1.58 1.53,2.57 0.16,1.55 -0.56,2.51 -1.38,1.87 -1.15,-0.97 -1.39,-4.24 -0.23,-4.44 z m 0.58,9.59 c -1.1,-1.08 -1.15,-4.3 0.24,-4.39 0.94,0.12 1.42,1.59 1.46,2.61 0.06,1.67 -0.85,2.62 -1.7,1.78 z m 2.95,0.14 c -1.08,-0.84 -1.36,-4.34 0,-4.52 0.86,0.07 1.34,1.53 1.41,2.54 0.08,1.57 -0.63,2.59 -1.41,1.98 z m 1.4,-9.86 c 0.75,0 1.31,1.44 1.47,2.44 0.25,1.55 -0.26,2.6 -1,2 -1,-0.73 -1.58,-4.16 -0.47,-4.44 z m 1.15,9.75 c -1,-0.78 -1.37,-4.29 -0.19,-4.55 0.78,0 1.27,1.46 1.37,2.47 0.18,1.61 -0.43,2.61 -1.18,2.08 z m 0.87,-10 c 0.66,0 1.23,1.37 1.42,2.37 0.29,1.55 -0.12,2.64 -0.8,2.12 -0.9,-0.74 -1.57,-4.19 -0.59,-4.51 z m 1.44,9.74 c -0.92,-0.72 -1.37,-4.23 -0.33,-4.56 0.7,0 1.18,1.38 1.3,2.4 0.22,1.55 -0.28,2.66 -0.94,2.14 z m 2,-0.43 c -0.83,-0.66 -1.36,-4.16 -0.46,-4.57 0.61,-0.08 1.09,1.31 1.23,2.32 0.28,1.55 -0.08,2.7 -0.71,2.23 z m 1.75,-0.59 c -0.74,-0.6 -1.34,-4.08 -0.58,-4.56 0.52,-0.14 1,1.23 1.15,2.24 0.31,1.54 0.02,2.73 -0.51,2.3 z m 1.52,-0.69 c -0.62,-0.32 -1.4,-4 -0.75,-4.6 0.42,-0.18 0.87,1.18 1.05,2.16 0.32,1.43 0.17,2.64 -0.24,2.42 z m 1.14,-0.89 c -0.51,-0.25 -1.32,-3.9 -0.84,-4.58 0.3,-0.21 0.73,0.92 0.95,2.07 0.34,1.42 0.29,2.66 -0.05,2.49 z"
     id="path30" />
  <path
     class="cls-4"
     d="m 163.38337,68.251956 v 0 c 0.06,0.11 0.13,0.22 0.18,0.33 z"
     id="path32" />
  <path
     class="cls-4"
     d="m 143.48337,102.91196 v 0 c -0.58,0.15 -1.16,0.3 -1.73,0.43 z"
     id="path34" />
  <path
     class="cls-1"
     d="M 91.033371,149.83196 Z"
     id="path36"
     style="fill:url(#linearGradient1091)" />
  <path
     class="cls-2"
     d="M 91.033371,149.84196 Z"
     id="path38"
     style="fill:url(#linearGradient1093)" />
  <path
     d="m 221.12337,147.90196 v -46.58 h 20.4 q 8.46,0 12.49,3.32 4.03,3.32 4,9.39 a 10.46,10.46 0 0 1 -2.26,6.63 10.29,10.29 0 0 1 -6.63,3.67 v 0.07 a 11.79,11.79 0 0 1 7.48,3.67 10.33,10.33 0 0 1 2.61,7.06 11.21,11.21 0 0 1 -4.34,9.38 q -4.34,3.39 -12.66,3.39 z m 9.46,-27 h 9.67 q 7.69,0 7.69,-6 0,-6 -7.69,-6 h -9.67 z m 0,19.69 h 10.8 c 2.63,0 4.59,-0.54 5.86,-1.62 a 5.61,5.61 0 0 0 1.9,-4.52 5.51,5.51 0 0 0 -1.9,-4.52 c -1.27,-1 -3.23,-1.55 -5.86,-1.55 h -10.8 z"
     id="path40" />
  <path
     d="m 278.29337,101.32196 v 46.58 h -9.74 v -46.58 z"
     id="path42" />
  <path
     d="m 310.54337,100.62196 a 23.41,23.41 0 0 1 11.92,2.92 19.42,19.42 0 0 1 7.73,8.26 28.13,28.13 0 0 1 2.72,12.84 28.18,28.18 0 0 1 -2.72,12.85 19.46,19.46 0 0 1 -7.73,8.25 23.42,23.42 0 0 1 -11.92,2.9 23.66,23.66 0 0 1 -12,-2.9 19.4,19.4 0 0 1 -7.76,-8.25 28.18,28.18 0 0 1 -2.72,-12.85 28.13,28.13 0 0 1 2.72,-12.84 19.37,19.37 0 0 1 7.76,-8.26 23.66,23.66 0 0 1 12,-2.92 z m 0,8 a 11.81,11.81 0 0 0 -6.67,1.84 11.33,11.33 0 0 0 -4.24,5.43 27.3,27.3 0 0 0 0,17.5 11.41,11.41 0 0 0 4.24,5.44 11.88,11.88 0 0 0 6.67,1.83 11.72,11.72 0 0 0 6.63,-1.83 11.52,11.52 0 0 0 4.2,-5.44 27.3,27.3 0 0 0 0,-17.5 11.44,11.44 0 0 0 -4.2,-5.43 11.65,11.65 0 0 0 -6.63,-1.87 z"
     id="path44" />
  <path
     d="m 360.71337,101.32196 q 10.94,0 16.94,6 6,6 6,17.25 0,11.16 -6,17.22 -6,6.06 -16.94,6.07 h -18 v -46.54 z m -0.49,38.82 q 6.63,0 10,-4 3.37,-4 3.35,-11.54 0,-7.54 -3.35,-11.54 -3.35,-4 -10,-4 h -7.77 v 31.08 z"
     id="path46" />
  <path
     d="m 403.19337,101.32196 v 46.58 h -9.74 v -46.58 z"
     id="path48" />
  <path
     d="m 455.56337,101.32196 -16.94,46.58 h -11.36 l -17,-46.58 h 10.3 l 9.81,29.64 2.66,9.18 2.62,-9.11 9.87,-29.71 z"
     id="path50" />
  <path
     d="m 462.61337,147.90196 v -46.58 h 34.93 v 7.84 h -25.19 v 11.57 h 19.83 v 7.48 h -19.83 v 11.86 h 26.18 v 7.83 z"
     id="path52" />
  <path
     d="m 527.82337,101.32196 q 7.9,0 12.42,3.81 a 12.72,12.72 0 0 1 4.52,10.24 q 0,6.84 -4.52,10.48 -4.52,3.64 -12.35,3.63 l -1,0.57 h -10 v 17.85 h -9.6 v -46.58 z m -1.13,21.32 c 2.73,0 4.76,-0.56 6.1,-1.66 a 7.53,7.53 0 0 0 0,-10.24 q -2,-1.65 -6.1,-1.65 h -9.81 v 13.55 z m 5.72,2 15.1,23.22 h -10.94 l -12.49,-20.32 z"
     id="path54" />
  <path
     d="m 572.28337,100.62196 a 26.63,26.63 0 0 1 11.15,2.19 21.84,21.84 0 0 1 8.18,6.49 l -5.43,6.24 a 19.12,19.12 0 0 0 -6.32,-5.4 17.42,17.42 0 0 0 -7.94,-1.73 13.24,13.24 0 0 0 -4.9,0.78 6,6 0 0 0 -2.82,2 4.85,4.85 0 0 0 -0.89,2.83 4.11,4.11 0 0 0 1.49,3.21 11.94,11.94 0 0 0 5.08,2.15 l 8.68,2 q 6.91,1.55 9.91,4.62 a 10.88,10.88 0 0 1 3,7.94 13,13 0 0 1 -2.4,7.87 15.07,15.07 0 0 1 -6.7,5 26.43,26.43 0 0 1 -9.88,1.73 32.17,32.17 0 0 1 -8.93,-1.17 27.05,27.05 0 0 1 -7.23,-3.21 21.28,21.28 0 0 1 -5.3,-4.62 l 5.5,-6.56 a 17.83,17.83 0 0 0 4,4 19.45,19.45 0 0 0 5.47,2.79 20.37,20.37 0 0 0 6.46,1 15.51,15.51 0 0 0 4.9,-0.67 6.47,6.47 0 0 0 3,-1.9 4.58,4.58 0 0 0 1,-3 4.4,4.4 0 0 0 -1.23,-3.14 8.87,8.87 0 0 0 -4.56,-2 l -9.45,-2.12 a 29,29 0 0 1 -7,-2.58 10.7,10.7 0 0 1 -6,-10 13,13 0 0 1 2.26,-7.48 15.32,15.32 0 0 1 6.65,-5.34 24.73,24.73 0 0 1 10.25,-1.92 z"
     id="path56" />
  <path
     d="m 610.45337,101.32196 v 46.58 h -9.73 v -46.58 z"
     id="path58" />
  <path
     d="m 659.43337,101.32196 v 7.84 h -15.6 v 38.74 h -9.73 v -38.74 h -15.67 v -7.84 z"
     id="path60" />
  <path
     d="m 704.03337,101.32196 -16.51,29.15 v 17.43 h -9.74 v -17.43 l -16.51,-29.15 h 10.37 l 7.48,13.91 3.53,7.34 3.6,-7.34 7.48,-13.91 z"
     id="path62" />
  <path
     d="m 256.90337,42.471956 v 46.58 h -4.37 l -24.7,-36.51 -3.46,-6 h -0.07 l 0.21,5.64 v 36.87 h -3.39 v -46.58 h 4.45 l 24.63,36.49 3.53,6.07 -0.14,-5.65 v -36.91 z"
     id="path64" />
  <path
     d="m 303.34337,45.721956 h -28.23 v 18 h 22.37 v 3.31 h -22.37 v 22 h -3.53 v -46.56 h 31.76 z"
     id="path66" />
  <path
     d="m 327.47337,42.471956 q 11.16,0 17.19,5.9 6.03,5.9 6,17 0,11.5 -6,17.57 -6,6.07 -17.19,6.07 h -14.68 v -46.54 z m 0.28,43.33 q 9.28,0 14.28,-5.26 5,-5.26 5,-15.1 0,-9.45 -5,-14.57 -5,-5.12 -14.3,-5.12 h -11.41 v 40.05 z"
     id="path68" />
  <path
     d="m 365.93337,42.471956 v 46.58 h -3.53 v -46.58 z"
     id="path70" />
  <path
     d="m 416.18337,89.051956 v -13.27 h -23.15 v -2.68 l 22.16,-30.63 h 4.52 v 30.28 h 9 v 3 h -9 v 13.3 z m 0,-16.3 v -21.31 q 0,-1.41 0,-3 c 0,-1 0.06,-2 0.11,-3 h -0.14 c -0.52,1 -1.14,2 -1.87,3.14 -0.73,1.14 -1.4,2.1 -2,3 l -15.44,21.17 z"
     id="path72" />
</svg>
